<?xml version="1.0" encoding="UTF-8" standalone="no"?>
<!DOCTYPE svg PUBLIC "-//W3C//DTD SVG 1.1//EN"
 "http://www.w3.org/Graphics/SVG/1.1/DTD/svg11.dtd">
<!-- Generated by graphviz version 15.1.0 (20260618.0150)
 -->
<!-- Title: pipeline&#45;overview Pages: 1 -->
<svg width="2600pt" height="454pt"
 viewBox="0.00 0.00 2600.00 454.00" xmlns="http://www.w3.org/2000/svg" xmlns:xlink="http://www.w3.org/1999/xlink">
<g id="graph0" class="graph" transform="scale(1.69243 1.69243) rotate(0) translate(43.2 224.84)">
<title>pipeline&#45;overview</title>
<text xml:space="preserve" text-anchor="start" x="36.12" y="-166.29" font-family="Helvetica,sans-Serif" font-weight="bold" font-size="13.00" fill="#1e2a38">Quantum Grid Intelligence — Pipeline</text>
<text xml:space="preserve" text-anchor="start" x="8" y="-157.09" font-family="Helvetica,sans-Serif" font-size="9.00" fill="#5b6b7c">ICE Costa Rica transmission network · fault&#45;zone partitioning as Max&#45;Cut</text>
<g id="clust1" class="cluster">
<title>cluster_classical</title>
<path fill="none" stroke="#2e6fa7" stroke-width="2.2" d="M192.3,-47.64C192.3,-47.64 513.15,-47.64 513.15,-47.64 519.15,-47.64 525.15,-53.64 525.15,-59.64 525.15,-59.64 525.15,-125.64 525.15,-125.64 525.15,-131.64 519.15,-137.64 513.15,-137.64 513.15,-137.64 192.3,-137.64 192.3,-137.64 186.3,-137.64 180.3,-131.64 180.3,-125.64 180.3,-125.64 180.3,-59.64 180.3,-59.64 180.3,-53.64 186.3,-47.64 192.3,-47.64"/>
<text xml:space="preserve" text-anchor="start" x="188.3" y="-123.24" font-family="Helvetica,sans-Serif" font-weight="bold" font-size="12.00" fill="#2e6fa7">Problem Formulation</text>
</g>
<g id="clust2" class="cluster">
<title>cluster_quantum</title>
<path fill="none" stroke="#6c3fc6" stroke-width="2.2" d="M660.03,-53.64C660.03,-53.64 1058.25,-53.64 1058.25,-53.64 1064.25,-53.64 1070.25,-59.64 1070.25,-65.64 1070.25,-65.64 1070.25,-131.64 1070.25,-131.64 1070.25,-137.64 1064.25,-143.64 1058.25,-143.64 1058.25,-143.64 660.03,-143.64 660.03,-143.64 654.03,-143.64 648.03,-137.64 648.03,-131.64 648.03,-131.64 648.03,-65.64 648.03,-65.64 648.03,-59.64 654.03,-53.64 660.03,-53.64"/>
<text xml:space="preserve" text-anchor="start" x="656.03" y="-129.24" font-family="Helvetica,sans-Serif" font-weight="bold" font-size="12.00" fill="#6c3fc6">Quantum&#45;Hybrid Optimization</text>
</g>
<g id="clust3" class="cluster">
<title>cluster_execution</title>
<path fill="none" stroke="#1a9c8a" stroke-width="2.2" d="M1105.25,-53.64C1105.25,-53.64 1429.85,-53.64 1429.85,-53.64 1435.85,-53.64 1441.85,-59.64 1441.85,-65.64 1441.85,-65.64 1441.85,-131.64 1441.85,-131.64 1441.85,-137.64 1435.85,-143.64 1429.85,-143.64 1429.85,-143.64 1105.25,-143.64 1105.25,-143.64 1099.25,-143.64 1093.25,-137.64 1093.25,-131.64 1093.25,-131.64 1093.25,-65.64 1093.25,-65.64 1093.25,-59.64 1099.25,-53.64 1105.25,-53.64"/>
<text xml:space="preserve" text-anchor="start" x="1101.25" y="-129.24" font-family="Helvetica,sans-Serif" font-weight="bold" font-size="12.00" fill="#1a9c8a">Real Execution</text>
</g>
<!-- data -->
<g id="node1" class="node">
<title>data</title>
<path fill="#dce7fa" stroke="#8a93a0" stroke-width="1.6" d="M129.3,-105.78C129.3,-105.78 12,-105.78 12,-105.78 6,-105.78 0,-99.78 0,-93.78 0,-93.78 0,-71.5 0,-71.5 0,-65.5 6,-59.5 12,-59.5 12,-59.5 129.3,-59.5 129.3,-59.5 135.3,-59.5 141.3,-65.5 141.3,-71.5 141.3,-71.5 141.3,-93.78 141.3,-93.78 141.3,-99.78 135.3,-105.78 129.3,-105.78"/>
<text xml:space="preserve" text-anchor="start" x="27.9" y="-87.69" font-family="Helvetica,sans-Serif" font-weight="bold" font-size="11.00" fill="#1e2a38">Power Grid Data</text>
<text xml:space="preserve" text-anchor="start" x="24.15" y="-78.59" font-family="Helvetica,sans-Serif" font-size="9.00" fill="#5b6b7c">ice_grid_topology.json</text>
<text xml:space="preserve" text-anchor="start" x="14.4" y="-69.59" font-family="Helvetica,sans-Serif" font-size="9.00" fill="#94a3b3">8 nodes · 9 weighted edges</text>
</g>
<!-- graph -->
<g id="node2" class="node">
<title>graph</title>
<path fill="#e7f0fa" stroke="#2e6fa7" stroke-width="1.6" d="M339.85,-101.28C339.85,-101.28 208.3,-101.28 208.3,-101.28 202.3,-101.28 196.3,-95.28 196.3,-89.28 196.3,-89.28 196.3,-76 196.3,-76 196.3,-70 202.3,-64 208.3,-64 208.3,-64 339.85,-64 339.85,-64 345.85,-64 351.85,-70 351.85,-76 351.85,-76 351.85,-89.28 351.85,-89.28 351.85,-95.28 345.85,-101.28 339.85,-101.28"/>
<text xml:space="preserve" text-anchor="start" x="231.7" y="-83.19" font-family="Helvetica,sans-Serif" font-weight="bold" font-size="11.00" fill="#1e2a38">Weighted Graph</text>
<text xml:space="preserve" text-anchor="start" x="210.7" y="-74.09" font-family="Helvetica,sans-Serif" font-size="9.00" fill="#5b6b7c">substations · transmission lines</text>
</g>
<!-- data&#45;&gt;graph -->
<g id="edge1" class="edge">
<title>data&#45;&gt;graph</title>
<path fill="none" stroke="#b8c2cc" stroke-width="1.3" d="M142.1,-82.64C156.34,-82.64 171.47,-82.64 186.19,-82.64"/>
<polygon fill="#b8c2cc" stroke="#b8c2cc" stroke-width="1.3" points="185.83,-85.44 193.83,-82.64 185.83,-79.84 185.83,-85.44"/>
</g>
<!-- qubo -->
<g id="node3" class="node">
<title>qubo</title>
<path fill="#e7f0fa" stroke="#2e6fa7" stroke-width="1.6" d="M497.15,-101.28C497.15,-101.28 418.85,-101.28 418.85,-101.28 412.85,-101.28 406.85,-95.28 406.85,-89.28 406.85,-89.28 406.85,-76 406.85,-76 406.85,-70 412.85,-64 418.85,-64 418.85,-64 497.15,-64 497.15,-64 503.15,-64 509.15,-70 509.15,-76 509.15,-76 509.15,-89.28 509.15,-89.28 509.15,-95.28 503.15,-101.28 497.15,-101.28"/>
<text xml:space="preserve" text-anchor="start" x="424.25" y="-83.19" font-family="Helvetica,sans-Serif" font-weight="bold" font-size="11.00" fill="#1e2a38">QUBO / Ising</text>
<text xml:space="preserve" text-anchor="start" x="421.25" y="-74.09" font-family="Helvetica,sans-Serif" font-size="9.00" fill="#5b6b7c">Max&#45;Cut objective</text>
</g>
<!-- graph&#45;&gt;qubo -->
<g id="edge2" class="edge">
<title>graph&#45;&gt;qubo</title>
<path fill="none" stroke="#b8c2cc" stroke-width="1.3" d="M352.49,-82.64C367.26,-82.64 382.52,-82.64 396.67,-82.64"/>
<polygon fill="#b8c2cc" stroke="#b8c2cc" stroke-width="1.3" points="396.29,-85.44 404.29,-82.64 396.29,-79.84 396.29,-85.44"/>
</g>
<!-- classical -->
<g id="node4" class="node">
<title>classical</title>
<path fill="#e7f0fa" stroke="#2e6fa7" stroke-width="1.6" d="M822.95,-37.28C822.95,-37.28 639.65,-37.28 639.65,-37.28 633.65,-37.28 627.65,-31.28 627.65,-25.28 627.65,-25.28 627.65,-12 627.65,-12 627.65,-6 633.65,0 639.65,0 639.65,0 822.95,0 822.95,0 828.95,0 834.95,-6 834.95,-12 834.95,-12 834.95,-25.28 834.95,-25.28 834.95,-31.28 828.95,-37.28 822.95,-37.28"/>
<text xml:space="preserve" text-anchor="start" x="680.68" y="-19.19" font-family="Helvetica,sans-Serif" font-weight="bold" font-size="11.00" fill="#1e2a38">Classical Baselines</text>
<text xml:space="preserve" text-anchor="start" x="642.05" y="-10.09" font-family="Helvetica,sans-Serif" font-size="9.00" fill="#5b6b7c">Brute Force · Greedy · Goemans&#45;Williamson</text>
</g>
<!-- qubo&#45;&gt;classical -->
<g id="edge3" class="edge">
<title>qubo&#45;&gt;classical</title>
<path fill="none" stroke="#2e6fa7" stroke-width="1.3" d="M509.71,-70.68C545.86,-62.15 595.46,-50.45 638.48,-40.3"/>
<polygon fill="#2e6fa7" stroke="#2e6fa7" stroke-width="1.3" points="639.06,-43.04 646.21,-38.48 637.78,-37.59 639.06,-43.04"/>
<text xml:space="preserve" text-anchor="middle" x="568.4" y="-65.48" font-family="Helvetica,sans-Serif" font-size="10.00" fill="#2e6fa7">classical solve</text>
</g>
<!-- maqaoa -->
<g id="node5" class="node">
<title>maqaoa</title>
<path fill="#efe8fb" stroke="#6c3fc6" stroke-width="1.6" d="M786.58,-107.28C786.58,-107.28 676.03,-107.28 676.03,-107.28 670.03,-107.28 664.03,-101.28 664.03,-95.28 664.03,-95.28 664.03,-82 664.03,-82 664.03,-76 670.03,-70 676.03,-70 676.03,-70 786.58,-70 786.58,-70 792.58,-70 798.58,-76 798.58,-82 798.58,-82 798.58,-95.28 798.58,-95.28 798.58,-101.28 792.58,-107.28 786.58,-107.28"/>
<text xml:space="preserve" text-anchor="start" x="704.3" y="-89.19" font-family="Helvetica,sans-Serif" font-weight="bold" font-size="11.00" fill="#1e2a38">MA&#45;QAOA</text>
<text xml:space="preserve" text-anchor="start" x="678.43" y="-80.09" font-family="Helvetica,sans-Serif" font-size="9.00" fill="#5b6b7c">warm&#45;started · multi&#45;angle</text>
</g>
<!-- qubo&#45;&gt;maqaoa -->
<g id="edge4" class="edge">
<title>qubo&#45;&gt;maqaoa</title>
<path fill="none" stroke="#6c3fc6" stroke-width="2" d="M509.71,-83.76C549.89,-84.65 606.71,-85.91 652.62,-86.92"/>
<polygon fill="#6c3fc6" stroke="#6c3fc6" stroke-width="2" points="652.35,-89.72 660.41,-87.09 652.48,-84.12 652.35,-89.72"/>
<text xml:space="preserve" text-anchor="middle" x="568.4" y="-87.39" font-family="Helvetica,sans-Serif" font-size="10.00" fill="#6c3fc6">quantum solve</text>
</g>
<!-- partition -->
<g id="node6" class="node">
<title>partition</title>
<path fill="#e4f6e9" stroke="#2e9e52" stroke-width="1.6" d="M1042.25,-107.28C1042.25,-107.28 948.95,-107.28 948.95,-107.28 942.95,-107.28 936.95,-101.28 936.95,-95.28 936.95,-95.28 936.95,-82 936.95,-82 936.95,-76 942.95,-70 948.95,-70 948.95,-70 1042.25,-70 1042.25,-70 1048.25,-70 1054.25,-76 1054.25,-82 1054.25,-82 1054.25,-95.28 1054.25,-95.28 1054.25,-101.28 1048.25,-107.28 1042.25,-107.28"/>
<text xml:space="preserve" text-anchor="start" x="951.35" y="-89.19" font-family="Helvetica,sans-Serif" font-weight="bold" font-size="11.00" fill="#1e2a38">Optimal Partition</text>
<text xml:space="preserve" text-anchor="start" x="955.85" y="-80.09" font-family="Helvetica,sans-Serif" font-size="9.00" fill="#5b6b7c">fault&#45;isolated zones</text>
</g>
<!-- classical&#45;&gt;partition -->
<g id="edge5" class="edge">
<title>classical&#45;&gt;partition</title>
<path fill="none" stroke="#2e6fa7" stroke-width="1.3" stroke-dasharray="5,2" d="M806.32,-38.06C815.96,-40.6 825.69,-43.18 834.95,-45.64 865.11,-53.67 898.44,-62.63 926.81,-70.29"/>
<polygon fill="#2e6fa7" stroke="#2e6fa7" stroke-width="1.3" points="925.88,-72.94 934.34,-72.32 927.34,-67.53 925.88,-72.94"/>
<text xml:space="preserve" text-anchor="middle" x="885.95" y="-67.32" font-family="Helvetica,sans-Serif" font-size="10.00" fill="#5b6b7c">benchmark</text>
</g>
<!-- maqaoa&#45;&gt;partition -->
<g id="edge6" class="edge">
<title>maqaoa&#45;&gt;partition</title>
<path fill="none" stroke="#6c3fc6" stroke-width="2" d="M799.17,-88.64C837.79,-88.64 886.3,-88.64 925.33,-88.64"/>
<polygon fill="#6c3fc6" stroke="#6c3fc6" stroke-width="2" points="925.3,-91.44 933.3,-88.64 925.3,-85.84 925.3,-91.44"/>
</g>
<!-- guppy -->
<g id="node7" class="node">
<title>guppy</title>
<path fill="#e3f6f2" stroke="#1a9c8a" stroke-width="1.6" d="M1210.8,-107.28C1210.8,-107.28 1121.25,-107.28 1121.25,-107.28 1115.25,-107.28 1109.25,-101.28 1109.25,-95.28 1109.25,-95.28 1109.25,-82 1109.25,-82 1109.25,-76 1115.25,-70 1121.25,-70 1121.25,-70 1210.8,-70 1210.8,-70 1216.8,-70 1222.8,-76 1222.8,-82 1222.8,-82 1222.8,-95.28 1222.8,-95.28 1222.8,-101.28 1216.8,-107.28 1210.8,-107.28"/>
<text xml:space="preserve" text-anchor="start" x="1123.65" y="-89.19" font-family="Helvetica,sans-Serif" font-weight="bold" font-size="11.00" fill="#1e2a38">Guppy → HUGR</text>
<text xml:space="preserve" text-anchor="start" x="1128.53" y="-80.09" font-family="Helvetica,sans-Serif" font-size="9.00" fill="#5b6b7c">gate&#45;level compile</text>
</g>
<!-- partition&#45;&gt;guppy -->
<g id="edge7" class="edge">
<title>partition&#45;&gt;guppy</title>
<path fill="none" stroke="#1a9c8a" stroke-width="2" d="M1055.03,-88.64C1068.89,-88.64 1083.77,-88.64 1097.98,-88.64"/>
<polygon fill="#1a9c8a" stroke="#1a9c8a" stroke-width="2" points="1097.65,-91.44 1105.65,-88.64 1097.65,-85.84 1097.65,-91.44"/>
</g>
<!-- nexus -->
<g id="node8" class="node">
<title>nexus</title>
<path fill="#e3f6f2" stroke="#1a9c8a" stroke-width="1.6" d="M1413.85,-107.28C1413.85,-107.28 1289.8,-107.28 1289.8,-107.28 1283.8,-107.28 1277.8,-101.28 1277.8,-95.28 1277.8,-95.28 1277.8,-82 1277.8,-82 1277.8,-76 1283.8,-70 1289.8,-70 1289.8,-70 1413.85,-70 1413.85,-70 1419.85,-70 1425.85,-76 1425.85,-82 1425.85,-82 1425.85,-95.28 1425.85,-95.28 1425.85,-101.28 1419.85,-107.28 1413.85,-107.28"/>
<text xml:space="preserve" text-anchor="start" x="1301.58" y="-89.19" font-family="Helvetica,sans-Serif" font-weight="bold" font-size="11.00" fill="#1e2a38">Quantinuum Nexus</text>
<text xml:space="preserve" text-anchor="start" x="1292.2" y="-80.09" font-family="Helvetica,sans-Serif" font-size="9.00" fill="#5b6b7c">Selene emulator · 5000 shots</text>
</g>
<!-- guppy&#45;&gt;nexus -->
<g id="edge8" class="edge">
<title>guppy&#45;&gt;nexus</title>
<path fill="none" stroke="#1a9c8a" stroke-width="2" d="M1223.42,-88.64C1236.96,-88.64 1251.71,-88.64 1266.22,-88.64"/>
<polygon fill="#1a9c8a" stroke="#1a9c8a" stroke-width="2" points="1266.22,-91.44 1274.22,-88.64 1266.22,-85.84 1266.22,-91.44"/>
</g>
</g>
</svg>
