<?xml version="1.0" encoding="UTF-8" standalone="no"?>
<!DOCTYPE svg PUBLIC "-//W3C//DTD SVG 1.1//EN"
 "http://www.w3.org/Graphics/SVG/1.1/DTD/svg11.dtd">
<!-- Generated by graphviz version 15.1.0 (20260618.0150)
 -->
<!-- Title: maqaoa&#45;circuit Pages: 1 -->
<svg width="2600pt" height="734pt"
 viewBox="0.00 0.00 2600.00 734.00" xmlns="http://www.w3.org/2000/svg" xmlns:xlink="http://www.w3.org/1999/xlink">
<g id="graph0" class="graph" transform="scale(2.48471 2.48471) rotate(0) translate(43.2 252.34)">
<title>maqaoa&#45;circuit</title>
<text xml:space="preserve" text-anchor="start" x="8" y="-193.79" font-family="Helvetica,sans-Serif" font-weight="bold" font-size="13.00" fill="#1e2a38">Multi&#45;Angle Warm&#45;Started QAOA</text>
<text xml:space="preserve" text-anchor="start" x="15.12" y="-184.59" font-family="Helvetica,sans-Serif" font-size="9.00" fill="#5b6b7c">per&#45;edge γ · per&#45;qubit β · bias&#45;preserving mixer</text>
<g id="clust1" class="cluster">
<title>cluster_warmstart</title>
<path fill="none" stroke="#2e6fa7" stroke-width="2.2" d="M20,-60.14C20,-60.14 368.6,-60.14 368.6,-60.14 374.6,-60.14 380.6,-66.14 380.6,-72.14 380.6,-72.14 380.6,-138.14 380.6,-138.14 380.6,-144.14 374.6,-150.14 368.6,-150.14 368.6,-150.14 20,-150.14 20,-150.14 14,-150.14 8,-144.14 8,-138.14 8,-138.14 8,-72.14 8,-72.14 8,-66.14 14,-60.14 20,-60.14"/>
<text xml:space="preserve" text-anchor="start" x="16" y="-135.74" font-family="Helvetica,sans-Serif" font-weight="bold" font-size="12.00" fill="#2e6fa7">Warm Start</text>
</g>
<g id="clust2" class="cluster">
<title>cluster_layer</title>
<path fill="none" stroke="#6c3fc6" stroke-width="2.2" d="M415.6,-60.14C415.6,-60.14 768.45,-60.14 768.45,-60.14 774.45,-60.14 780.45,-66.14 780.45,-72.14 780.45,-72.14 780.45,-159.14 780.45,-159.14 780.45,-165.14 774.45,-171.14 768.45,-171.14 768.45,-171.14 415.6,-171.14 415.6,-171.14 409.6,-171.14 403.6,-165.14 403.6,-159.14 403.6,-159.14 403.6,-72.14 403.6,-72.14 403.6,-66.14 409.6,-60.14 415.6,-60.14"/>
<text xml:space="preserve" text-anchor="start" x="426.6" y="-156.74" font-family="Helvetica,sans-Serif" font-weight="bold" font-size="12.00" fill="#6c3fc6">Layer l</text>
<text xml:space="preserve" text-anchor="start" x="411.6" y="-147.59" font-family="Helvetica,sans-Serif" font-size="9.00" fill="#5b6b7c">repeated p times</text>
</g>
<!-- gw -->
<g id="node1" class="node">
<title>gw</title>
<path fill="#e7f0fa" stroke="#2e6fa7" stroke-width="1.6" d="M178.05,-113.78C178.05,-113.78 36,-113.78 36,-113.78 30,-113.78 24,-107.78 24,-101.78 24,-101.78 24,-88.5 24,-88.5 24,-82.5 30,-76.5 36,-76.5 36,-76.5 178.05,-76.5 178.05,-76.5 184.05,-76.5 190.05,-82.5 190.05,-88.5 190.05,-88.5 190.05,-101.78 190.05,-101.78 190.05,-107.78 184.05,-113.78 178.05,-113.78"/>
<text xml:space="preserve" text-anchor="start" x="38.4" y="-95.69" font-family="Helvetica,sans-Serif" font-weight="bold" font-size="11.00" fill="#1e2a38">Goemans&#45;Williamson SDP</text>
<text xml:space="preserve" text-anchor="start" x="63.15" y="-86.59" font-family="Helvetica,sans-Serif" font-size="9.00" fill="#5b6b7c">continuous relaxation</text>
</g>
<!-- init -->
<g id="node2" class="node">
<title>init</title>
<path fill="#e7f0fa" stroke="#2e6fa7" stroke-width="1.6" d="M352.6,-113.78C352.6,-113.78 257.05,-113.78 257.05,-113.78 251.05,-113.78 245.05,-107.78 245.05,-101.78 245.05,-101.78 245.05,-88.5 245.05,-88.5 245.05,-82.5 251.05,-76.5 257.05,-76.5 257.05,-76.5 352.6,-76.5 352.6,-76.5 358.6,-76.5 364.6,-82.5 364.6,-88.5 364.6,-88.5 364.6,-101.78 364.6,-101.78 364.6,-107.78 358.6,-113.78 352.6,-113.78"/>
<text xml:space="preserve" text-anchor="start" x="262.07" y="-95.69" font-family="Helvetica,sans-Serif" font-weight="bold" font-size="11.00" fill="#1e2a38">Warm&#45;start prep</text>
<text xml:space="preserve" text-anchor="start" x="259.45" y="-86.59" font-family="Helvetica,sans-Serif" font-size="9.00" fill="#5b6b7c">Ry(θᵢ) from cᵢ per qubit</text>
</g>
<!-- gw&#45;&gt;init -->
<g id="edge1" class="edge">
<title>gw&#45;&gt;init</title>
<path fill="none" stroke="#2e6fa7" stroke-width="1.3" d="M190.78,-95.14C205.45,-95.14 220.58,-95.14 234.82,-95.14"/>
<polygon fill="#2e6fa7" stroke="#2e6fa7" stroke-width="1.3" points="234.56,-97.94 242.56,-95.14 234.56,-92.34 234.56,-97.94"/>
</g>
<!-- cost -->
<g id="node3" class="node">
<title>cost</title>
<path fill="#efe8fb" stroke="#6c3fc6" stroke-width="1.6" d="M536.15,-113.78C536.15,-113.78 431.6,-113.78 431.6,-113.78 425.6,-113.78 419.6,-107.78 419.6,-101.78 419.6,-101.78 419.6,-88.5 419.6,-88.5 419.6,-82.5 425.6,-76.5 431.6,-76.5 431.6,-76.5 536.15,-76.5 536.15,-76.5 542.15,-76.5 548.15,-82.5 548.15,-88.5 548.15,-88.5 548.15,-101.78 548.15,-101.78 548.15,-107.78 542.15,-113.78 536.15,-113.78"/>
<text xml:space="preserve" text-anchor="start" x="450.87" y="-95.69" font-family="Helvetica,sans-Serif" font-weight="bold" font-size="11.00" fill="#1e2a38">Cost Unitary</text>
<text xml:space="preserve" text-anchor="start" x="434" y="-86.59" font-family="Helvetica,sans-Serif" font-size="9.00" fill="#5b6b7c">U(H_C, γ) · per&#45;edge γᵢⱼ</text>
</g>
<!-- init&#45;&gt;cost -->
<g id="edge2" class="edge">
<title>init&#45;&gt;cost</title>
<path fill="none" stroke="#6c3fc6" stroke-width="2" d="M365.27,-95.14C379.04,-95.14 393.87,-95.14 408.2,-95.14"/>
<polygon fill="#6c3fc6" stroke="#6c3fc6" stroke-width="2" points="408,-97.94 416,-95.14 408,-92.34 408,-97.94"/>
</g>
<!-- mixer -->
<g id="node4" class="node">
<title>mixer</title>
<path fill="#efe8fb" stroke="#6c3fc6" stroke-width="1.6" d="M752.45,-113.78C752.45,-113.78 654.65,-113.78 654.65,-113.78 648.65,-113.78 642.65,-107.78 642.65,-101.78 642.65,-101.78 642.65,-88.5 642.65,-88.5 642.65,-82.5 648.65,-76.5 654.65,-76.5 654.65,-76.5 752.45,-76.5 752.45,-76.5 758.45,-76.5 764.45,-82.5 764.45,-88.5 764.45,-88.5 764.45,-101.78 764.45,-101.78 764.45,-107.78 758.45,-113.78 752.45,-113.78"/>
<text xml:space="preserve" text-anchor="start" x="668.67" y="-95.69" font-family="Helvetica,sans-Serif" font-weight="bold" font-size="11.00" fill="#1e2a38">Mixer Unitary</text>
<text xml:space="preserve" text-anchor="start" x="657.05" y="-86.59" font-family="Helvetica,sans-Serif" font-size="9.00" fill="#5b6b7c">U(H_B, β) · per&#45;qubit βᵢ</text>
</g>
<!-- cost&#45;&gt;mixer -->
<g id="edge3" class="edge">
<title>cost&#45;&gt;mixer</title>
<path fill="none" stroke="#6c3fc6" stroke-width="2" d="M548.67,-84.35C569.96,-81.94 593.81,-80.52 615.65,-82.14 620.71,-82.52 625.92,-83.01 631.16,-83.6"/>
<polygon fill="#6c3fc6" stroke="#6c3fc6" stroke-width="2" points="630.62,-86.35 638.9,-84.53 631.29,-80.79 630.62,-86.35"/>
</g>
<!-- mixer&#45;&gt;cost -->
<g id="edge5" class="edge">
<title>mixer&#45;&gt;cost</title>
<path fill="none" stroke="#94a3b3" stroke-width="1.3" stroke-dasharray="5,2" d="M642.08,-95.14C616.2,-95.14 585.74,-95.14 558.56,-95.14"/>
<polygon fill="#94a3b3" stroke="#94a3b3" stroke-width="1.3" points="558.68,-92.34 550.68,-95.14 558.68,-97.94 558.68,-92.34"/>
<text xml:space="preserve" text-anchor="middle" x="595.4" y="-96.89" font-family="Helvetica,sans-Serif" font-size="10.00" fill="#5b6b7c">×p layers</text>
</g>
<!-- measure -->
<g id="node5" class="node">
<title>measure</title>
<path fill="#e4f6e9" stroke="#2e9e52" stroke-width="1.6" d="M948,-113.78C948,-113.78 831.45,-113.78 831.45,-113.78 825.45,-113.78 819.45,-107.78 819.45,-101.78 819.45,-101.78 819.45,-88.5 819.45,-88.5 819.45,-82.5 825.45,-76.5 831.45,-76.5 831.45,-76.5 948,-76.5 948,-76.5 954,-76.5 960,-82.5 960,-88.5 960,-88.5 960,-101.78 960,-101.78 960,-107.78 954,-113.78 948,-113.78"/>
<text xml:space="preserve" text-anchor="start" x="854.47" y="-95.69" font-family="Helvetica,sans-Serif" font-weight="bold" font-size="11.00" fill="#1e2a38">Measurement</text>
<text xml:space="preserve" text-anchor="start" x="833.85" y="-86.59" font-family="Helvetica,sans-Serif" font-size="9.00" fill="#5b6b7c">bitstring x → Max&#45;Cut value</text>
</g>
<!-- mixer&#45;&gt;measure -->
<g id="edge4" class="edge">
<title>mixer&#45;&gt;measure</title>
<path fill="none" stroke="#2e9e52" stroke-width="2" d="M765.11,-95.14C778.81,-95.14 793.57,-95.14 807.96,-95.14"/>
<polygon fill="#2e9e52" stroke="#2e9e52" stroke-width="2" points="807.84,-97.94 815.84,-95.14 807.84,-92.34 807.84,-97.94"/>
</g>
<!-- note -->
<g id="node6" class="node">
<title>note</title>
<path fill="#f8fafc" stroke="#8a93a0" stroke-width="1.6" stroke-dasharray="5,2" d="M170.17,-44.28C170.17,-44.28 43.87,-44.28 43.87,-44.28 37.87,-44.28 31.87,-38.28 31.87,-32.28 31.87,-32.28 31.87,-12 31.87,-12 31.87,-6 37.87,0 43.87,0 43.87,0 170.17,0 170.17,0 176.17,0 182.17,-6 182.17,-12 182.17,-12 182.17,-32.28 182.17,-32.28 182.17,-38.28 176.17,-44.28 170.17,-44.28"/>
<text xml:space="preserve" text-anchor="start" x="72.9" y="-28.09" font-family="Helvetica,sans-Serif" font-weight="bold" font-size="9.00" fill="#1e2a38">Standard QAOA</text>
<text xml:space="preserve" text-anchor="start" x="60.52" y="-19.09" font-family="Helvetica,sans-Serif" font-size="9.00" fill="#5b6b7c">2 shared angles / layer</text>
<text xml:space="preserve" text-anchor="start" x="46.27" y="-10.09" font-family="Helvetica,sans-Serif" font-size="9.00" fill="#94a3b3">MA&#45;QAOA: m+n angles / layer</text>
</g>
<!-- note&#45;&gt;cost -->
<g id="edge6" class="edge">
<title>note&#45;&gt;cost</title>
<path fill="none" stroke="#94a3b3" stroke-width="1.3" stroke-dasharray="1,5" d="M182.82,-24.57C238.18,-27.77 315.05,-35.14 380.6,-52.14 402.41,-57.8 425.65,-67.27 444.46,-75.88"/>
</g>
</g>
</svg>
