<?xml version="1.0" encoding="UTF-8" standalone="no"?>
<!DOCTYPE svg PUBLIC "-//W3C//DTD SVG 1.1//EN"
 "http://www.w3.org/Graphics/SVG/1.1/DTD/svg11.dtd">
<!-- Generated by graphviz version 15.1.0 (20260618.0150)
 -->
<!-- Title: benchmark&#45;tree Pages: 1 -->
<svg width="1999pt" height="1321pt"
 viewBox="0.00 0.00 1999.00 1321.00" xmlns="http://www.w3.org/2000/svg" xmlns:xlink="http://www.w3.org/1999/xlink">
<g id="graph0" class="graph" transform="scale(2.77778 2.77778) rotate(0) translate(43.2 432.2)">
<title>benchmark&#45;tree</title>
<text xml:space="preserve" text-anchor="start" x="8" y="-373.65" font-family="Helvetica,sans-Serif" font-weight="bold" font-size="13.00" fill="#1e2a38">Classical vs. Quantum&#45;Hybrid Benchmark</text>
<text xml:space="preserve" text-anchor="start" x="26" y="-364.45" font-family="Helvetica,sans-Serif" font-size="9.00" fill="#5b6b7c">Fault&#45;Zone Partitioning (Max&#45;Cut) on the 8&#45;node ICE grid</text>
<g id="clust1" class="cluster">
<title>cluster_classical</title>
<path fill="none" stroke="#2e6fa7" stroke-width="2.2" d="M200.55,-123C200.55,-123 348.35,-123 348.35,-123 354.35,-123 360.35,-129 360.35,-135 360.35,-135 360.35,-339 360.35,-339 360.35,-345 354.35,-351 348.35,-351 348.35,-351 200.55,-351 200.55,-351 194.55,-351 188.55,-345 188.55,-339 188.55,-339 188.55,-135 188.55,-135 188.55,-129 194.55,-123 200.55,-123"/>
<text xml:space="preserve" text-anchor="start" x="196.55" y="-336.6" font-family="Helvetica,sans-Serif" font-weight="bold" font-size="12.00" fill="#2e6fa7">Classical Baselines</text>
</g>
<g id="clust2" class="cluster">
<title>cluster_quantum</title>
<path fill="none" stroke="#6c3fc6" stroke-width="2.2" d="M215.92,-8C215.92,-8 613.4,-8 613.4,-8 619.4,-8 625.4,-14 625.4,-20 625.4,-20 625.4,-103 625.4,-103 625.4,-109 619.4,-115 613.4,-115 613.4,-115 215.92,-115 215.92,-115 209.92,-115 203.92,-109 203.92,-103 203.92,-103 203.92,-20 203.92,-20 203.92,-14 209.92,-8 215.92,-8"/>
<text xml:space="preserve" text-anchor="start" x="211.92" y="-100.6" font-family="Helvetica,sans-Serif" font-weight="bold" font-size="12.00" fill="#6c3fc6">Quantum&#45;Hybrid</text>
</g>
<!-- root -->
<g id="node1" class="node">
<title>root</title>
<path fill="#f8fafc" stroke="#8a93a0" stroke-width="1.6" d="M137.55,-202.64C137.55,-202.64 12,-202.64 12,-202.64 6,-202.64 0,-196.64 0,-190.64 0,-190.64 0,-177.36 0,-177.36 0,-171.36 6,-165.36 12,-165.36 12,-165.36 137.55,-165.36 137.55,-165.36 143.55,-165.36 149.55,-171.36 149.55,-177.36 149.55,-177.36 149.55,-190.64 149.55,-190.64 149.55,-196.64 143.55,-202.64 137.55,-202.64"/>
<text xml:space="preserve" text-anchor="start" x="14.4" y="-184.55" font-family="Helvetica,sans-Serif" font-weight="bold" font-size="11.00" fill="#1e2a38">Fault&#45;Zone Partitioning</text>
<text xml:space="preserve" text-anchor="start" x="57.52" y="-175.45" font-family="Helvetica,sans-Serif" font-size="9.00" fill="#5b6b7c">Max&#45;Cut</text>
</g>
<!-- bf -->
<g id="node2" class="node">
<title>bf</title>
<path fill="#e7f0fa" stroke="#2e6fa7" stroke-width="1.6" d="M309.1,-314.64C309.1,-314.64 239.8,-314.64 239.8,-314.64 233.8,-314.64 227.8,-308.64 227.8,-302.64 227.8,-302.64 227.8,-289.36 227.8,-289.36 227.8,-283.36 233.8,-277.36 239.8,-277.36 239.8,-277.36 309.1,-277.36 309.1,-277.36 315.1,-277.36 321.1,-283.36 321.1,-289.36 321.1,-289.36 321.1,-302.64 321.1,-302.64 321.1,-308.64 315.1,-314.64 309.1,-314.64"/>
<text xml:space="preserve" text-anchor="start" x="243.32" y="-296.55" font-family="Helvetica,sans-Serif" font-weight="bold" font-size="11.00" fill="#1e2a38">Brute Force</text>
<text xml:space="preserve" text-anchor="start" x="242.2" y="-287.45" font-family="Helvetica,sans-Serif" font-size="9.00" fill="#5b6b7c">exact · r = 1.000</text>
</g>
<!-- root&#45;&gt;bf -->
<g id="edge1" class="edge">
<title>root&#45;&gt;bf</title>
<path fill="none" stroke="#2e6fa7" stroke-width="1.3" d="M100.27,-203.35C122.45,-220.27 156.46,-244.76 188.55,-262 197.87,-267.01 208.08,-271.71 218.1,-275.93"/>
<polygon fill="#2e6fa7" stroke="#2e6fa7" stroke-width="1.3" points="216.93,-278.47 225.39,-278.91 219.05,-273.29 216.93,-278.47"/>
</g>
<!-- gw -->
<g id="node3" class="node">
<title>gw</title>
<path fill="#e7f0fa" stroke="#2e6fa7" stroke-width="1.6" d="M332.35,-245.64C332.35,-245.64 216.55,-245.64 216.55,-245.64 210.55,-245.64 204.55,-239.64 204.55,-233.64 204.55,-233.64 204.55,-220.36 204.55,-220.36 204.55,-214.36 210.55,-208.36 216.55,-208.36 216.55,-208.36 332.35,-208.36 332.35,-208.36 338.35,-208.36 344.35,-214.36 344.35,-220.36 344.35,-220.36 344.35,-233.64 344.35,-233.64 344.35,-239.64 338.35,-245.64 332.35,-245.64"/>
<text xml:space="preserve" text-anchor="start" x="218.95" y="-227.55" font-family="Helvetica,sans-Serif" font-weight="bold" font-size="11.00" fill="#1e2a38">Goemans&#45;Williamson</text>
<text xml:space="preserve" text-anchor="start" x="243.7" y="-218.45" font-family="Helvetica,sans-Serif" font-size="9.00" fill="#5b6b7c">SDP · r ≥ 0.878</text>
</g>
<!-- root&#45;&gt;gw -->
<g id="edge2" class="edge">
<title>root&#45;&gt;gw</title>
<path fill="none" stroke="#2e6fa7" stroke-width="1.3" d="M150.23,-200.2C164.68,-203.34 179.88,-206.65 194.47,-209.82"/>
<polygon fill="#2e6fa7" stroke="#2e6fa7" stroke-width="1.3" points="193.62,-212.5 202.04,-211.47 194.82,-207.03 193.62,-212.5"/>
</g>
<!-- greedy -->
<g id="node4" class="node">
<title>greedy</title>
<path fill="#e7f0fa" stroke="#2e6fa7" stroke-width="1.6" d="M310.22,-176.64C310.22,-176.64 238.67,-176.64 238.67,-176.64 232.67,-176.64 226.67,-170.64 226.67,-164.64 226.67,-164.64 226.67,-151.36 226.67,-151.36 226.67,-145.36 232.67,-139.36 238.67,-139.36 238.67,-139.36 310.22,-139.36 310.22,-139.36 316.22,-139.36 322.22,-145.36 322.22,-151.36 322.22,-151.36 322.22,-164.64 322.22,-164.64 322.22,-170.64 316.22,-176.64 310.22,-176.64"/>
<text xml:space="preserve" text-anchor="start" x="255.7" y="-158.55" font-family="Helvetica,sans-Serif" font-weight="bold" font-size="11.00" fill="#1e2a38">Greedy</text>
<text xml:space="preserve" text-anchor="start" x="241.07" y="-149.45" font-family="Helvetica,sans-Serif" font-size="9.00" fill="#5b6b7c">heuristic · r ≈ 0.5</text>
</g>
<!-- root&#45;&gt;greedy -->
<g id="edge3" class="edge">
<title>root&#45;&gt;greedy</title>
<path fill="none" stroke="#2e6fa7" stroke-width="1.3" d="M150.23,-174.21C172.05,-171.34 195.56,-168.25 216.13,-165.54"/>
<polygon fill="#2e6fa7" stroke="#2e6fa7" stroke-width="1.3" points="216.46,-168.32 224.03,-164.5 215.73,-162.77 216.46,-168.32"/>
</g>
<!-- maqaoa -->
<g id="node5" class="node">
<title>maqaoa</title>
<path fill="#efe8fb" stroke="#6c3fc6" stroke-width="1.6" d="M316.97,-76.64C316.97,-76.64 231.92,-76.64 231.92,-76.64 225.92,-76.64 219.92,-70.64 219.92,-64.64 219.92,-64.64 219.92,-51.36 219.92,-51.36 219.92,-45.36 225.92,-39.36 231.92,-39.36 231.92,-39.36 316.97,-39.36 316.97,-39.36 322.97,-39.36 328.97,-45.36 328.97,-51.36 328.97,-51.36 328.97,-64.64 328.97,-64.64 328.97,-70.64 322.97,-76.64 316.97,-76.64"/>
<text xml:space="preserve" text-anchor="start" x="236.57" y="-58.55" font-family="Helvetica,sans-Serif" font-weight="bold" font-size="11.00" fill="#1e2a38">MA&#45;QAOA p=1</text>
<text xml:space="preserve" text-anchor="start" x="234.32" y="-49.45" font-family="Helvetica,sans-Serif" font-size="9.00" fill="#5b6b7c">idealized · r ≈ 0.987</text>
</g>
<!-- root&#45;&gt;maqaoa -->
<g id="edge4" class="edge">
<title>root&#45;&gt;maqaoa</title>
<path fill="none" stroke="#6c3fc6" stroke-width="2" d="M106.23,-164.59C140.47,-142.76 196.2,-107.24 233.81,-83.26"/>
<polygon fill="#6c3fc6" stroke="#6c3fc6" stroke-width="2" points="235.17,-85.72 240.41,-79.06 232.16,-81 235.17,-85.72"/>
</g>
<!-- maqaoa_nexus -->
<g id="node6" class="node">
<title>maqaoa_nexus</title>
<path fill="#efe8fb" stroke="#6c3fc6" stroke-width="1.6" d="M597.4,-74.64C597.4,-74.64 471.1,-74.64 471.1,-74.64 465.1,-74.64 459.1,-68.64 459.1,-62.64 459.1,-62.64 459.1,-49.36 459.1,-49.36 459.1,-43.36 465.1,-37.36 471.1,-37.36 471.1,-37.36 597.4,-37.36 597.4,-37.36 603.4,-37.36 609.4,-43.36 609.4,-49.36 609.4,-49.36 609.4,-62.64 609.4,-62.64 609.4,-68.64 603.4,-74.64 597.4,-74.64"/>
<text xml:space="preserve" text-anchor="start" x="481.38" y="-56.55" font-family="Helvetica,sans-Serif" font-weight="bold" font-size="11.00" fill="#1e2a38">MA&#45;QAOA on Nexus</text>
<text xml:space="preserve" text-anchor="start" x="473.5" y="-47.45" font-family="Helvetica,sans-Serif" font-size="9.00" fill="#5b6b7c">Selene, 5000 shots · r ≈ 0.987</text>
</g>
<!-- maqaoa&#45;&gt;maqaoa_nexus -->
<g id="edge5" class="edge">
<title>maqaoa&#45;&gt;maqaoa_nexus</title>
<path fill="none" stroke="#6c3fc6" stroke-width="1.3" d="M329.49,-57.58C364.07,-57.31 409.63,-56.96 448.91,-56.65"/>
<polygon fill="#6c3fc6" stroke="#6c3fc6" stroke-width="1.3" points="448.8,-59.46 456.78,-56.59 448.76,-53.86 448.8,-59.46"/>
<text xml:space="preserve" text-anchor="middle" x="401.72" y="-70.24" font-family="Helvetica,sans-Serif" font-size="10.00" fill="#5b6b7c">same circuit,</text>
<text xml:space="preserve" text-anchor="middle" x="401.72" y="-58.99" font-family="Helvetica,sans-Serif" font-size="10.00" fill="#5b6b7c">real execution</text>
</g>
</g>
</svg>
