<?xml version="1.0" encoding="UTF-8" standalone="no"?>
<!DOCTYPE svg PUBLIC "-//W3C//DTD SVG 1.1//EN"
 "http://www.w3.org/Graphics/SVG/1.1/DTD/svg11.dtd">
<!-- Generated by graphviz version 15.1.0 (20260618.0150)
 -->
<!-- Title: guppy&#45;nexus&#45;execution Pages: 1 -->
<svg width="2600pt" height="467pt"
 viewBox="0.00 0.00 2600.00 467.00" xmlns="http://www.w3.org/2000/svg" xmlns:xlink="http://www.w3.org/1999/xlink">
<g id="graph0" class="graph" transform="scale(1.64453 1.64453) rotate(0) translate(43.2 240.84)">
<title>guppy&#45;nexus&#45;execution</title>
<text xml:space="preserve" text-anchor="start" x="8" y="-182.29" font-family="Helvetica,sans-Serif" font-weight="bold" font-size="13.00" fill="#1e2a38">Real Execution on Quantinuum Nexus</text>
<text xml:space="preserve" text-anchor="start" x="55.25" y="-173.09" font-family="Helvetica,sans-Serif" font-size="9.00" fill="#5b6b7c">guppy_qaoa.py → run_on_nexus.py</text>
<g id="clust1" class="cluster">
<title>cluster_build</title>
<path fill="none" stroke="#1a9c8a" stroke-width="2.2" d="M20,-60.64C20,-60.64 598.65,-60.64 598.65,-60.64 604.65,-60.64 610.65,-66.64 610.65,-72.64 610.65,-72.64 610.65,-147.64 610.65,-147.64 610.65,-153.64 604.65,-159.64 598.65,-159.64 598.65,-159.64 20,-159.64 20,-159.64 14,-159.64 8,-153.64 8,-147.64 8,-147.64 8,-72.64 8,-72.64 8,-66.64 14,-60.64 20,-60.64"/>
<text xml:space="preserve" text-anchor="start" x="25.75" y="-145.24" font-family="Helvetica,sans-Serif" font-weight="bold" font-size="12.00" fill="#1a9c8a">Circuit Build</text>
<text xml:space="preserve" text-anchor="start" x="16" y="-136.09" font-family="Helvetica,sans-Serif" font-size="9.00" fill="#5b6b7c">guppy_qaoa.py · local</text>
</g>
<g id="clust2" class="cluster">
<title>cluster_nexus</title>
<path fill="none" stroke="#1a9c8a" stroke-width="2.2" d="M645.65,-60.64C645.65,-60.64 1236.3,-60.64 1236.3,-60.64 1242.3,-60.64 1248.3,-66.64 1248.3,-72.64 1248.3,-72.64 1248.3,-147.64 1248.3,-147.64 1248.3,-153.64 1242.3,-159.64 1236.3,-159.64 1236.3,-159.64 645.65,-159.64 645.65,-159.64 639.65,-159.64 633.65,-153.64 633.65,-147.64 633.65,-147.64 633.65,-72.64 633.65,-72.64 633.65,-66.64 639.65,-60.64 645.65,-60.64"/>
<text xml:space="preserve" text-anchor="start" x="659.28" y="-145.24" font-family="Helvetica,sans-Serif" font-weight="bold" font-size="12.00" fill="#1a9c8a">Quantinuum Nexus</text>
<text xml:space="preserve" text-anchor="start" x="641.65" y="-136.09" font-family="Helvetica,sans-Serif" font-size="9.00" fill="#5b6b7c">run_on_nexus.py · Selene emulator</text>
</g>
<!-- params -->
<g id="node1" class="node">
<title>params</title>
<path fill="#efe8fb" stroke="#6c3fc6" stroke-width="1.6" d="M142.05,-114.28C142.05,-114.28 36,-114.28 36,-114.28 30,-114.28 24,-108.28 24,-102.28 24,-102.28 24,-89 24,-89 24,-83 30,-77 36,-77 36,-77 142.05,-77 142.05,-77 148.05,-77 154.05,-83 154.05,-89 154.05,-89 154.05,-102.28 154.05,-102.28 154.05,-108.28 148.05,-114.28 142.05,-114.28"/>
<text xml:space="preserve" text-anchor="start" x="47.4" y="-96.19" font-family="Helvetica,sans-Serif" font-weight="bold" font-size="11.00" fill="#1e2a38">Optimized γ*, β*</text>
<text xml:space="preserve" text-anchor="start" x="38.4" y="-87.09" font-family="Helvetica,sans-Serif" font-size="9.00" fill="#5b6b7c">NumPy statevector result</text>
</g>
<!-- guppy -->
<g id="node2" class="node">
<title>guppy</title>
<path fill="#e3f6f2" stroke="#1a9c8a" stroke-width="1.6" d="M399.85,-114.28C399.85,-114.28 221.05,-114.28 221.05,-114.28 215.05,-114.28 209.05,-108.28 209.05,-102.28 209.05,-102.28 209.05,-89 209.05,-89 209.05,-83 215.05,-77 221.05,-77 221.05,-77 399.85,-77 399.85,-77 405.85,-77 411.85,-83 411.85,-89 411.85,-89 411.85,-102.28 411.85,-102.28 411.85,-108.28 405.85,-114.28 399.85,-114.28"/>
<text xml:space="preserve" text-anchor="start" x="274.08" y="-96.19" font-family="Helvetica,sans-Serif" font-weight="bold" font-size="11.00" fill="#1e2a38">Guppy Circuit</text>
<text xml:space="preserve" text-anchor="start" x="223.45" y="-87.09" font-family="Helvetica,sans-Serif" font-size="9.00" fill="#5b6b7c">Ry warm&#45;start · zz_phase · Ry&#45;Rz&#45;Ry mixer</text>
</g>
<!-- params&#45;&gt;guppy -->
<g id="edge1" class="edge">
<title>params&#45;&gt;guppy</title>
<path fill="none" stroke="#1a9c8a" stroke-width="1.3" d="M154.67,-95.64C168.57,-95.64 183.63,-95.64 198.72,-95.64"/>
<polygon fill="#1a9c8a" stroke="#1a9c8a" stroke-width="1.3" points="198.66,-98.44 206.66,-95.64 198.66,-92.84 198.66,-98.44"/>
</g>
<!-- compare -->
<g id="node7" class="node">
<title>compare</title>
<path fill="#e4f6e9" stroke="#2e9e52" stroke-width="1.6" d="M1482.6,-114.28C1482.6,-114.28 1299.3,-114.28 1299.3,-114.28 1293.3,-114.28 1287.3,-108.28 1287.3,-102.28 1287.3,-102.28 1287.3,-89 1287.3,-89 1287.3,-83 1293.3,-77 1299.3,-77 1299.3,-77 1482.6,-77 1482.6,-77 1488.6,-77 1494.6,-83 1494.6,-89 1494.6,-89 1494.6,-102.28 1494.6,-102.28 1494.6,-108.28 1488.6,-114.28 1482.6,-114.28"/>
<text xml:space="preserve" text-anchor="start" x="1349.33" y="-96.19" font-family="Helvetica,sans-Serif" font-weight="bold" font-size="11.00" fill="#1e2a38">r = 0.987 ≈ 0.987</text>
<text xml:space="preserve" text-anchor="start" x="1301.7" y="-87.09" font-family="Helvetica,sans-Serif" font-size="9.00" fill="#5b6b7c">idealized vs. Nexus, agree within shot noise</text>
</g>
<!-- params&#45;&gt;compare -->
<g id="edge7" class="edge">
<title>params&#45;&gt;compare</title>
<path fill="none" stroke="#94a3b3" stroke-width="1.3" stroke-dasharray="5,2" d="M145.69,-76.27C165.45,-70.19 188.02,-64.16 209.05,-60.64 664.63,15.52 792.32,21.11 1248.3,-52.64 1275.3,-57.01 1304.32,-65.18 1329.03,-73.23"/>
<polygon fill="#94a3b3" stroke="#94a3b3" stroke-width="1.3" points="1327.93,-75.81 1336.4,-75.68 1329.69,-70.5 1327.93,-75.81"/>
<text xml:space="preserve" text-anchor="middle" x="732.68" y="-5.83" font-family="Helvetica,sans-Serif" font-size="10.00" fill="#5b6b7c">idealized ratio</text>
</g>
<!-- hugr -->
<g id="node3" class="node">
<title>hugr</title>
<path fill="#e3f6f2" stroke="#1a9c8a" stroke-width="1.6" d="M582.65,-114.28C582.65,-114.28 478.85,-114.28 478.85,-114.28 472.85,-114.28 466.85,-108.28 466.85,-102.28 466.85,-102.28 466.85,-89 466.85,-89 466.85,-83 472.85,-77 478.85,-77 478.85,-77 582.65,-77 582.65,-77 588.65,-77 594.65,-83 594.65,-89 594.65,-89 594.65,-102.28 594.65,-102.28 594.65,-108.28 588.65,-114.28 582.65,-114.28"/>
<text xml:space="preserve" text-anchor="start" x="481.25" y="-96.19" font-family="Helvetica,sans-Serif" font-weight="bold" font-size="11.00" fill="#1e2a38">compile() → HUGR</text>
<text xml:space="preserve" text-anchor="start" x="500" y="-87.09" font-family="Helvetica,sans-Serif" font-size="9.00" fill="#5b6b7c">Quantinuum IR</text>
</g>
<!-- guppy&#45;&gt;hugr -->
<g id="edge2" class="edge">
<title>guppy&#45;&gt;hugr</title>
<path fill="none" stroke="#1a9c8a" stroke-width="2" d="M412.61,-95.64C427.04,-95.64 441.66,-95.64 455.46,-95.64"/>
<polygon fill="#1a9c8a" stroke="#1a9c8a" stroke-width="2" points="455.29,-98.44 463.29,-95.64 455.29,-92.84 455.29,-98.44"/>
</g>
<!-- upload -->
<g id="node4" class="node">
<title>upload</title>
<path fill="#e3f6f2" stroke="#1a9c8a" stroke-width="1.6" d="M803.7,-114.28C803.7,-114.28 661.65,-114.28 661.65,-114.28 655.65,-114.28 649.65,-108.28 649.65,-102.28 649.65,-102.28 649.65,-89 649.65,-89 649.65,-83 655.65,-77 661.65,-77 661.65,-77 803.7,-77 803.7,-77 809.7,-77 815.7,-83 815.7,-89 815.7,-89 815.7,-102.28 815.7,-102.28 815.7,-108.28 809.7,-114.28 803.7,-114.28"/>
<text xml:space="preserve" text-anchor="start" x="701.18" y="-96.19" font-family="Helvetica,sans-Serif" font-weight="bold" font-size="11.00" fill="#1e2a38">hugr.upload</text>
<text xml:space="preserve" text-anchor="start" x="664.05" y="-87.09" font-family="Helvetica,sans-Serif" font-size="9.00" fill="#5b6b7c">project: quantum&#45;grid&#45;intelligence</text>
</g>
<!-- hugr&#45;&gt;upload -->
<g id="edge3" class="edge">
<title>hugr&#45;&gt;upload</title>
<path fill="none" stroke="#1a9c8a" stroke-width="2" d="M595.28,-95.64C608.86,-95.64 623.47,-95.64 637.91,-95.64"/>
<polygon fill="#1a9c8a" stroke="#1a9c8a" stroke-width="2" points="637.88,-98.44 645.88,-95.64 637.88,-92.84 637.88,-98.44"/>
</g>
<!-- job -->
<g id="node5" class="node">
<title>job</title>
<path fill="#e3f6f2" stroke="#1a9c8a" stroke-width="1.6" d="M995.5,-114.28C995.5,-114.28 882.7,-114.28 882.7,-114.28 876.7,-114.28 870.7,-108.28 870.7,-102.28 870.7,-102.28 870.7,-89 870.7,-89 870.7,-83 876.7,-77 882.7,-77 882.7,-77 995.5,-77 995.5,-77 1001.5,-77 1007.5,-83 1007.5,-89 1007.5,-89 1007.5,-102.28 1007.5,-102.28 1007.5,-108.28 1001.5,-114.28 995.5,-114.28"/>
<text xml:space="preserve" text-anchor="start" x="906.85" y="-96.19" font-family="Helvetica,sans-Serif" font-weight="bold" font-size="11.00" fill="#1e2a38">Execute Job</text>
<text xml:space="preserve" text-anchor="start" x="885.1" y="-87.09" font-family="Helvetica,sans-Serif" font-size="9.00" fill="#5b6b7c">SeleneConfig · 5000 shots</text>
</g>
<!-- upload&#45;&gt;job -->
<g id="edge4" class="edge">
<title>upload&#45;&gt;job</title>
<path fill="none" stroke="#1a9c8a" stroke-width="1.3" d="M816.23,-95.64C830.73,-95.64 845.77,-95.64 860.14,-95.64"/>
<polygon fill="#1a9c8a" stroke="#1a9c8a" stroke-width="1.3" points="859.99,-98.44 867.99,-95.64 859.99,-92.84 859.99,-98.44"/>
</g>
<!-- counts -->
<g id="node6" class="node">
<title>counts</title>
<path fill="#e3f6f2" stroke="#1a9c8a" stroke-width="1.6" d="M1220.3,-114.28C1220.3,-114.28 1074.5,-114.28 1074.5,-114.28 1068.5,-114.28 1062.5,-108.28 1062.5,-102.28 1062.5,-102.28 1062.5,-89 1062.5,-89 1062.5,-83 1068.5,-77 1074.5,-77 1074.5,-77 1220.3,-77 1220.3,-77 1226.3,-77 1232.3,-83 1232.3,-89 1232.3,-89 1232.3,-102.28 1232.3,-102.28 1232.3,-108.28 1226.3,-114.28 1220.3,-114.28"/>
<text xml:space="preserve" text-anchor="start" x="1091.53" y="-96.19" font-family="Helvetica,sans-Serif" font-weight="bold" font-size="11.00" fill="#1e2a38">Measurement Counts</text>
<text xml:space="preserve" text-anchor="start" x="1076.9" y="-87.09" font-family="Helvetica,sans-Serif" font-size="9.00" fill="#5b6b7c">register &quot;c&quot; → energy_from_counts</text>
</g>
<!-- job&#45;&gt;counts -->
<g id="edge5" class="edge">
<title>job&#45;&gt;counts</title>
<path fill="none" stroke="#1a9c8a" stroke-width="1.3" d="M1008.22,-95.64C1022.28,-95.64 1037.32,-95.64 1052.12,-95.64"/>
<polygon fill="#1a9c8a" stroke="#1a9c8a" stroke-width="1.3" points="1051.82,-98.44 1059.82,-95.64 1051.82,-92.84 1051.82,-98.44"/>
</g>
<!-- counts&#45;&gt;compare -->
<g id="edge6" class="edge">
<title>counts&#45;&gt;compare</title>
<path fill="none" stroke="#2e9e52" stroke-width="2" d="M1232.88,-95.64C1246.76,-95.64 1261.34,-95.64 1275.8,-95.64"/>
<polygon fill="#2e9e52" stroke="#2e9e52" stroke-width="2" points="1275.78,-98.44 1283.78,-95.64 1275.78,-92.84 1275.78,-98.44"/>
</g>
</g>
</svg>
