<?xml version="1.0" encoding="UTF-8" standalone="no"?>
<!DOCTYPE svg PUBLIC "-//W3C//DTD SVG 1.1//EN"
 "http://www.w3.org/Graphics/SVG/1.1/DTD/svg11.dtd">
<!-- Generated by graphviz version 15.1.0 (20260618.0150)
 -->
<!-- Title: grid&#45;topology&#45;schematic Pages: 1 -->
<svg width="1940pt" height="1242pt"
 viewBox="0.00 0.00 1940.00 1242.00" xmlns="http://www.w3.org/2000/svg" xmlns:xlink="http://www.w3.org/1999/xlink">
<g id="graph0" class="graph" transform="scale(2.77778 2.77778) rotate(0) translate(43.2 403.82)">
<title>grid&#45;topology&#45;schematic</title>
<text xml:space="preserve" text-anchor="start" x="8" y="-345.27" font-family="Helvetica,sans-Serif" font-weight="bold" font-size="13.00" fill="#1e2a38">ICE Grid — Conceptual Topology &amp; Optimal Fault&#45;Zone Cut</text>
<text xml:space="preserve" text-anchor="start" x="53.75" y="-336.07" font-family="Helvetica,sans-Serif" font-size="9.00" fill="#5b6b7c">colored by generation type · red = edges crossing the optimal partition</text>
<!-- 0 -->
<g id="node1" class="node">
<title>0</title>
<path fill="#dcefe3" stroke="#3b7a57" stroke-width="1.6" d="M187.2,-282.51C187.2,-282.51 129.9,-282.51 129.9,-282.51 123.9,-282.51 117.9,-276.51 117.9,-270.51 117.9,-270.51 117.9,-257.23 117.9,-257.23 117.9,-251.23 123.9,-245.23 129.9,-245.23 129.9,-245.23 187.2,-245.23 187.2,-245.23 193.2,-245.23 199.2,-251.23 199.2,-257.23 199.2,-257.23 199.2,-270.51 199.2,-270.51 199.2,-276.51 193.2,-282.51 187.2,-282.51"/>
<text xml:space="preserve" text-anchor="start" x="141.3" y="-264.42" font-family="Helvetica,sans-Serif" font-weight="bold" font-size="11.00" fill="#1e2a38">Arenal</text>
<text xml:space="preserve" text-anchor="start" x="132.3" y="-255.32" font-family="Helvetica,sans-Serif" font-size="9.00" fill="#5b6b7c">hydroelectric</text>
</g>
<!-- 1 -->
<g id="node2" class="node">
<title>1</title>
<path fill="#c9e6d3" stroke="#3b7a57" stroke-width="1.6" d="M69.3,-330.62C69.3,-330.62 12,-330.62 12,-330.62 6,-330.62 0,-324.62 0,-318.62 0,-318.62 0,-305.34 0,-305.34 0,-299.34 6,-293.34 12,-293.34 12,-293.34 69.3,-293.34 69.3,-293.34 75.3,-293.34 81.3,-299.34 81.3,-305.34 81.3,-305.34 81.3,-318.62 81.3,-318.62 81.3,-324.62 75.3,-330.62 69.3,-330.62"/>
<text xml:space="preserve" text-anchor="start" x="14.4" y="-312.53" font-family="Helvetica,sans-Serif" font-weight="bold" font-size="11.00" fill="#1e2a38">Miravalles</text>
<text xml:space="preserve" text-anchor="start" x="17.4" y="-303.43" font-family="Helvetica,sans-Serif" font-size="9.00" fill="#5b6b7c">geothermal</text>
</g>
<!-- 0&#45;&#45;1 -->
<g id="edge1" class="edge">
<title>0&#45;&#45;1</title>
<path fill="none" stroke="#d6455a" stroke-width="2" stroke-dasharray="5,2" d="M117.32,-280.7C105.89,-285.36 93.49,-290.42 82.06,-295.09"/>
</g>
<!-- 2 -->
<g id="node3" class="node">
<title>2</title>
<path fill="#edeff2" stroke="#8a93a0" stroke-width="1.6" d="M89.24,-278.99C89.24,-278.99 42.44,-278.99 42.44,-278.99 36.44,-278.99 30.44,-272.99 30.44,-266.99 30.44,-266.99 30.44,-253.71 30.44,-253.71 30.44,-247.71 36.44,-241.71 42.44,-241.71 42.44,-241.71 89.24,-241.71 89.24,-241.71 95.24,-241.71 101.24,-247.71 101.24,-253.71 101.24,-253.71 101.24,-266.99 101.24,-266.99 101.24,-272.99 95.24,-278.99 89.24,-278.99"/>
<text xml:space="preserve" text-anchor="start" x="49.34" y="-260.9" font-family="Helvetica,sans-Serif" font-weight="bold" font-size="11.00" fill="#1e2a38">Cañas</text>
<text xml:space="preserve" text-anchor="start" x="44.84" y="-251.8" font-family="Helvetica,sans-Serif" font-size="9.00" fill="#5b6b7c">substation</text>
</g>
<!-- 0&#45;&#45;2 -->
<g id="edge2" class="edge">
<title>0&#45;&#45;2</title>
<path fill="none" stroke="#d6455a" stroke-width="1.6" stroke-dasharray="5,2" d="M117.35,-262.31C112.22,-262.12 107.01,-261.92 101.97,-261.73"/>
</g>
<!-- 1&#45;&#45;2 -->
<g id="edge3" class="edge">
<title>1&#45;&#45;2</title>
<path fill="none" stroke="#b8c2cc" stroke-width="1.4" d="M50.03,-292.76C52.1,-288.52 54.29,-284.02 56.37,-279.77"/>
</g>
<!-- 3 -->
<g id="node4" class="node">
<title>3</title>
<path fill="#fbebd9" stroke="#3b7a57" stroke-width="1.6" d="M206.5,-202.14C206.5,-202.14 156.7,-202.14 156.7,-202.14 150.7,-202.14 144.7,-196.14 144.7,-190.14 144.7,-190.14 144.7,-176.86 144.7,-176.86 144.7,-170.86 150.7,-164.86 156.7,-164.86 156.7,-164.86 206.5,-164.86 206.5,-164.86 212.5,-164.86 218.5,-170.86 218.5,-176.86 218.5,-176.86 218.5,-190.14 218.5,-190.14 218.5,-196.14 212.5,-202.14 206.5,-202.14"/>
<text xml:space="preserve" text-anchor="start" x="159.1" y="-184.05" font-family="Helvetica,sans-Serif" font-weight="bold" font-size="11.00" fill="#1e2a38">Garabito</text>
<text xml:space="preserve" text-anchor="start" x="166.22" y="-174.95" font-family="Helvetica,sans-Serif" font-size="9.00" fill="#5b6b7c">thermal</text>
</g>
<!-- 2&#45;&#45;3 -->
<g id="edge4" class="edge">
<title>2&#45;&#45;3</title>
<path fill="none" stroke="#d6455a" stroke-width="2.7" stroke-dasharray="5,2" d="M95.05,-240.96C112.6,-229.31 134.85,-214.54 152.39,-202.89"/>
</g>
<!-- 4 -->
<g id="node5" class="node">
<title>4</title>
<path fill="#dce7fa" stroke="#3b7a57" stroke-width="1.6" d="M339.45,-199.64C339.45,-199.64 286.65,-199.64 286.65,-199.64 280.65,-199.64 274.65,-193.64 274.65,-187.64 274.65,-187.64 274.65,-174.36 274.65,-174.36 274.65,-168.36 280.65,-162.36 286.65,-162.36 286.65,-162.36 339.45,-162.36 339.45,-162.36 345.45,-162.36 351.45,-168.36 351.45,-174.36 351.45,-174.36 351.45,-187.64 351.45,-187.64 351.45,-193.64 345.45,-199.64 339.45,-199.64"/>
<text xml:space="preserve" text-anchor="start" x="289.05" y="-181.55" font-family="Helvetica,sans-Serif" font-weight="bold" font-size="11.00" fill="#1e2a38">San José</text>
<text xml:space="preserve" text-anchor="start" x="290.18" y="-172.45" font-family="Helvetica,sans-Serif" font-size="9.00" fill="#5b6b7c">load center</text>
</g>
<!-- 3&#45;&#45;4 -->
<g id="edge5" class="edge">
<title>3&#45;&#45;4</title>
<path fill="none" stroke="#d6455a" stroke-width="3.6" stroke-dasharray="5,2" d="M219.27,-182.78C236.41,-182.46 256.69,-182.07 274,-181.74"/>
</g>
<!-- 7 -->
<g id="node8" class="node">
<title>7</title>
<path fill="#edeff2" stroke="#8a93a0" stroke-width="1.6" d="M501.89,-37.28C501.89,-37.28 455.09,-37.28 455.09,-37.28 449.09,-37.28 443.09,-31.28 443.09,-25.28 443.09,-25.28 443.09,-12 443.09,-12 443.09,-6 449.09,0 455.09,0 455.09,0 501.89,0 501.89,0 507.89,0 513.89,-6 513.89,-12 513.89,-12 513.89,-25.28 513.89,-25.28 513.89,-31.28 507.89,-37.28 501.89,-37.28"/>
<text xml:space="preserve" text-anchor="start" x="460.12" y="-19.19" font-family="Helvetica,sans-Serif" font-weight="bold" font-size="11.00" fill="#1e2a38">Palmar</text>
<text xml:space="preserve" text-anchor="start" x="457.49" y="-10.09" font-family="Helvetica,sans-Serif" font-size="9.00" fill="#5b6b7c">substation</text>
</g>
<!-- 3&#45;&#45;7 -->
<g id="edge9" class="edge">
<title>3&#45;&#45;7</title>
<path fill="none" stroke="#d6455a" stroke-width="3" stroke-dasharray="5,2" d="M216.53,-164.1C273.7,-132.35 386.61,-69.66 443.69,-37.96"/>
</g>
<!-- 5 -->
<g id="node6" class="node">
<title>5</title>
<path fill="#dcefe3" stroke="#3b7a57" stroke-width="1.6" d="M428.78,-179.99C428.78,-179.99 371.48,-179.99 371.48,-179.99 365.48,-179.99 359.48,-173.99 359.48,-167.99 359.48,-167.99 359.48,-154.71 359.48,-154.71 359.48,-148.71 365.48,-142.71 371.48,-142.71 371.48,-142.71 428.78,-142.71 428.78,-142.71 434.78,-142.71 440.78,-148.71 440.78,-154.71 440.78,-154.71 440.78,-167.99 440.78,-167.99 440.78,-173.99 434.78,-179.99 428.78,-179.99"/>
<text xml:space="preserve" text-anchor="start" x="385.13" y="-161.9" font-family="Helvetica,sans-Serif" font-weight="bold" font-size="11.00" fill="#1e2a38">Cachí</text>
<text xml:space="preserve" text-anchor="start" x="373.88" y="-152.8" font-family="Helvetica,sans-Serif" font-size="9.00" fill="#5b6b7c">hydroelectric</text>
</g>
<!-- 4&#45;&#45;5 -->
<g id="edge6" class="edge">
<title>4&#45;&#45;5</title>
<path fill="none" stroke="#b8c2cc" stroke-width="2.3" d="M352,-172.21C354.27,-171.7 356.55,-171.18 358.82,-170.67"/>
</g>
<!-- 6 -->
<g id="node7" class="node">
<title>6</title>
<path fill="#edeff2" stroke="#8a93a0" stroke-width="1.6" d="M599.97,-209.47C599.97,-209.47 553.17,-209.47 553.17,-209.47 547.17,-209.47 541.17,-203.47 541.17,-197.47 541.17,-197.47 541.17,-184.19 541.17,-184.19 541.17,-178.19 547.17,-172.19 553.17,-172.19 553.17,-172.19 599.97,-172.19 599.97,-172.19 605.97,-172.19 611.97,-178.19 611.97,-184.19 611.97,-184.19 611.97,-197.47 611.97,-197.47 611.97,-203.47 605.97,-209.47 599.97,-209.47"/>
<text xml:space="preserve" text-anchor="start" x="563.82" y="-191.38" font-family="Helvetica,sans-Serif" font-weight="bold" font-size="11.00" fill="#1e2a38">Moín</text>
<text xml:space="preserve" text-anchor="start" x="555.57" y="-182.28" font-family="Helvetica,sans-Serif" font-size="9.00" fill="#5b6b7c">substation</text>
</g>
<!-- 4&#45;&#45;6 -->
<g id="edge8" class="edge">
<title>4&#45;&#45;6</title>
<path fill="none" stroke="#d6455a" stroke-width="2.5" stroke-dasharray="5,2" d="M352.22,-182.46C403.11,-184.36 491.29,-187.65 540.57,-189.49"/>
</g>
<!-- 5&#45;&#45;6 -->
<g id="edge7" class="edge">
<title>5&#45;&#45;6</title>
<path fill="none" stroke="#d6455a" stroke-width="3.2" stroke-dasharray="5,2" d="M441.49,-168.26C471.54,-173.28 511.8,-180.01 540.54,-184.81"/>
</g>
</g>
</svg>
