<?xml version="1.0" encoding="UTF-8" standalone="no"?>
<!DOCTYPE svg PUBLIC "-//W3C//DTD SVG 1.1//EN"
 "http://www.w3.org/Graphics/SVG/1.1/DTD/svg11.dtd">
<!-- Generated by graphviz version 15.1.0 (20260618.0150)
 -->
<!-- Title: pipeline&#45;overview Pages: 1 -->
<svg width="1359pt" height="2200pt"
 viewBox="0.00 0.00 1359.00 2200.00" xmlns="http://www.w3.org/2000/svg" xmlns:xlink="http://www.w3.org/1999/xlink">
<g id="graph0" class="graph" transform="scale(2.70234 2.70234) rotate(0) translate(43.2 770.91)">
<title>pipeline&#45;overview</title>
<text xml:space="preserve" text-anchor="start" x="36.12" y="-712.36" font-family="Helvetica,sans-Serif" font-weight="bold" font-size="13.00" fill="#1e2a38">Quantum Grid Intelligence — Pipeline</text>
<text xml:space="preserve" text-anchor="start" x="8" y="-703.16" font-family="Helvetica,sans-Serif" font-size="9.00" fill="#5b6b7c">ICE Costa Rica transmission network · fault&#45;zone partitioning as Max&#45;Cut</text>
<g id="clust1" class="cluster">
<title>cluster_classical</title>
<path fill="none" stroke="#2e6fa7" stroke-width="2.2" d="M142,-433.12C142,-433.12 306,-433.12 306,-433.12 312,-433.12 318,-439.12 318,-445.12 318,-445.12 318,-603.43 318,-603.43 318,-609.43 312,-615.43 306,-615.43 306,-615.43 142,-615.43 142,-615.43 136,-615.43 130,-609.43 130,-603.43 130,-603.43 130,-445.12 130,-445.12 130,-439.12 136,-433.12 142,-433.12"/>
<text xml:space="preserve" text-anchor="start" x="138" y="-601.03" font-family="Helvetica,sans-Serif" font-weight="bold" font-size="12.00" fill="#2e6fa7">Problem Formulation</text>
</g>
<g id="clust2" class="cluster">
<title>cluster_quantum</title>
<path fill="none" stroke="#6c3fc6" stroke-width="2.2" d="M20,-210.31C20,-210.31 181,-210.31 181,-210.31 187,-210.31 193,-216.31 193,-222.31 193,-222.31 193,-390.87 193,-390.87 193,-396.87 187,-402.87 181,-402.87 181,-402.87 20,-402.87 20,-402.87 14,-402.87 8,-396.87 8,-390.87 8,-390.87 8,-222.31 8,-222.31 8,-216.31 14,-210.31 20,-210.31"/>
<text xml:space="preserve" text-anchor="start" x="16" y="-388.47" font-family="Helvetica,sans-Serif" font-weight="bold" font-size="12.00" fill="#6c3fc6">Quantum&#45;Hybrid Optimization</text>
</g>
<g id="clust3" class="cluster">
<title>cluster_execution</title>
<path fill="none" stroke="#1a9c8a" stroke-width="2.2" d="M36,-8C36,-8 192,-8 192,-8 198,-8 204,-14 204,-20 204,-20 204,-178.31 204,-178.31 204,-184.31 198,-190.31 192,-190.31 192,-190.31 36,-190.31 36,-190.31 30,-190.31 24,-184.31 24,-178.31 24,-178.31 24,-20 24,-20 24,-14 30,-8 36,-8"/>
<text xml:space="preserve" text-anchor="start" x="32" y="-175.91" font-family="Helvetica,sans-Serif" font-weight="bold" font-size="12.00" fill="#1a9c8a">Real Execution</text>
</g>
<!-- data -->
<g id="node1" class="node">
<title>data</title>
<path fill="#dce7fa" stroke="#8a93a0" stroke-width="1.6" d="M282.65,-697.71C282.65,-697.71 165.35,-697.71 165.35,-697.71 159.35,-697.71 153.35,-691.71 153.35,-685.71 153.35,-685.71 153.35,-663.43 153.35,-663.43 153.35,-657.43 159.35,-651.43 165.35,-651.43 165.35,-651.43 282.65,-651.43 282.65,-651.43 288.65,-651.43 294.65,-657.43 294.65,-663.43 294.65,-663.43 294.65,-685.71 294.65,-685.71 294.65,-691.71 288.65,-697.71 282.65,-697.71"/>
<text xml:space="preserve" text-anchor="start" x="181.25" y="-679.62" font-family="Helvetica,sans-Serif" font-weight="bold" font-size="11.00" fill="#1e2a38">Power Grid Data</text>
<text xml:space="preserve" text-anchor="start" x="177.5" y="-670.52" font-family="Helvetica,sans-Serif" font-size="9.00" fill="#5b6b7c">ice_grid_topology.json</text>
<text xml:space="preserve" text-anchor="start" x="167.75" y="-661.52" font-family="Helvetica,sans-Serif" font-size="9.00" fill="#94a3b3">8 nodes · 9 weighted edges</text>
</g>
<!-- graph -->
<g id="node2" class="node">
<title>graph</title>
<path fill="#e7f0fa" stroke="#2e6fa7" stroke-width="1.6" d="M289.77,-578.68C289.77,-578.68 158.22,-578.68 158.22,-578.68 152.22,-578.68 146.22,-572.68 146.22,-566.68 146.22,-566.68 146.22,-553.4 146.22,-553.4 146.22,-547.4 152.22,-541.4 158.22,-541.4 158.22,-541.4 289.77,-541.4 289.77,-541.4 295.77,-541.4 301.77,-547.4 301.77,-553.4 301.77,-553.4 301.77,-566.68 301.77,-566.68 301.77,-572.68 295.77,-578.68 289.77,-578.68"/>
<text xml:space="preserve" text-anchor="start" x="181.62" y="-560.59" font-family="Helvetica,sans-Serif" font-weight="bold" font-size="11.00" fill="#1e2a38">Weighted Graph</text>
<text xml:space="preserve" text-anchor="start" x="160.62" y="-551.49" font-family="Helvetica,sans-Serif" font-size="9.00" fill="#5b6b7c">substations · transmission lines</text>
</g>
<!-- data&#45;&gt;graph -->
<g id="edge1" class="edge">
<title>data&#45;&gt;graph</title>
<path fill="none" stroke="#b8c2cc" stroke-width="1.3" d="M224,-650.8C224,-633.02 224,-608.24 224,-589.22"/>
<polygon fill="#b8c2cc" stroke="#b8c2cc" stroke-width="1.3" points="226.8,-589.29 224,-581.29 221.2,-589.29 226.8,-589.29"/>
</g>
<!-- qubo -->
<g id="node3" class="node">
<title>qubo</title>
<path fill="#e7f0fa" stroke="#2e6fa7" stroke-width="1.6" d="M263.15,-486.4C263.15,-486.4 184.85,-486.4 184.85,-486.4 178.85,-486.4 172.85,-480.4 172.85,-474.4 172.85,-474.4 172.85,-461.12 172.85,-461.12 172.85,-455.12 178.85,-449.12 184.85,-449.12 184.85,-449.12 263.15,-449.12 263.15,-449.12 269.15,-449.12 275.15,-455.12 275.15,-461.12 275.15,-461.12 275.15,-474.4 275.15,-474.4 275.15,-480.4 269.15,-486.4 263.15,-486.4"/>
<text xml:space="preserve" text-anchor="start" x="190.25" y="-468.31" font-family="Helvetica,sans-Serif" font-weight="bold" font-size="11.00" fill="#1e2a38">QUBO / Ising</text>
<text xml:space="preserve" text-anchor="start" x="187.25" y="-459.21" font-family="Helvetica,sans-Serif" font-size="9.00" fill="#5b6b7c">Max&#45;Cut objective</text>
</g>
<!-- graph&#45;&gt;qubo -->
<g id="edge2" class="edge">
<title>graph&#45;&gt;qubo</title>
<path fill="none" stroke="#b8c2cc" stroke-width="1.3" d="M224,-540.77C224,-528.17 224,-511.17 224,-496.85"/>
<polygon fill="#b8c2cc" stroke="#b8c2cc" stroke-width="1.3" points="226.8,-496.97 224,-488.97 221.2,-496.97 226.8,-496.97"/>
</g>
<!-- classical -->
<g id="node4" class="node">
<title>classical</title>
<path fill="#e7f0fa" stroke="#2e6fa7" stroke-width="1.6" d="M404.65,-366.12C404.65,-366.12 221.35,-366.12 221.35,-366.12 215.35,-366.12 209.35,-360.12 209.35,-354.12 209.35,-354.12 209.35,-340.84 209.35,-340.84 209.35,-334.84 215.35,-328.84 221.35,-328.84 221.35,-328.84 404.65,-328.84 404.65,-328.84 410.65,-328.84 416.65,-334.84 416.65,-340.84 416.65,-340.84 416.65,-354.12 416.65,-354.12 416.65,-360.12 410.65,-366.12 404.65,-366.12"/>
<text xml:space="preserve" text-anchor="start" x="262.38" y="-348.03" font-family="Helvetica,sans-Serif" font-weight="bold" font-size="11.00" fill="#1e2a38">Classical Baselines</text>
<text xml:space="preserve" text-anchor="start" x="223.75" y="-338.93" font-family="Helvetica,sans-Serif" font-size="9.00" fill="#5b6b7c">Brute Force · Greedy · Goemans&#45;Williamson</text>
</g>
<!-- qubo&#45;&gt;classical -->
<g id="edge3" class="edge">
<title>qubo&#45;&gt;classical</title>
<path fill="none" stroke="#2e6fa7" stroke-width="1.3" d="M237.71,-448.54C252.56,-428.8 276.39,-397.13 293.26,-374.72"/>
<polygon fill="#2e6fa7" stroke="#2e6fa7" stroke-width="1.3" points="295.37,-376.57 297.94,-368.49 290.9,-373.2 295.37,-376.57"/>
<text xml:space="preserve" text-anchor="middle" x="298.08" y="-412.62" font-family="Helvetica,sans-Serif" font-size="10.00" fill="#2e6fa7">classical solve</text>
</g>
<!-- maqaoa -->
<g id="node5" class="node">
<title>maqaoa</title>
<path fill="#efe8fb" stroke="#6c3fc6" stroke-width="1.6" d="M165.28,-366.12C165.28,-366.12 54.72,-366.12 54.72,-366.12 48.73,-366.12 42.72,-360.12 42.72,-354.12 42.72,-354.12 42.72,-340.84 42.72,-340.84 42.72,-334.84 48.72,-328.84 54.72,-328.84 54.72,-328.84 165.28,-328.84 165.28,-328.84 171.28,-328.84 177.28,-334.84 177.28,-340.84 177.28,-340.84 177.28,-354.12 177.28,-354.12 177.28,-360.12 171.28,-366.12 165.28,-366.12"/>
<text xml:space="preserve" text-anchor="start" x="83" y="-348.03" font-family="Helvetica,sans-Serif" font-weight="bold" font-size="11.00" fill="#1e2a38">MA&#45;QAOA</text>
<text xml:space="preserve" text-anchor="start" x="57.12" y="-338.93" font-family="Helvetica,sans-Serif" font-size="9.00" fill="#5b6b7c">warm&#45;started · multi&#45;angle</text>
</g>
<!-- qubo&#45;&gt;maqaoa -->
<g id="edge4" class="edge">
<title>qubo&#45;&gt;maqaoa</title>
<path fill="none" stroke="#6c3fc6" stroke-width="2" d="M206.44,-448.54C187.41,-428.8 156.89,-397.13 135.29,-374.72"/>
<polygon fill="#6c3fc6" stroke="#6c3fc6" stroke-width="2" points="137.44,-372.91 129.87,-369.1 133.41,-376.8 137.44,-372.91"/>
<text xml:space="preserve" text-anchor="middle" x="212.44" y="-412.62" font-family="Helvetica,sans-Serif" font-size="10.00" fill="#6c3fc6">quantum solve</text>
</g>
<!-- partition -->
<g id="node6" class="node">
<title>partition</title>
<path fill="#e4f6e9" stroke="#2e9e52" stroke-width="1.6" d="M160.65,-263.59C160.65,-263.59 67.35,-263.59 67.35,-263.59 61.35,-263.59 55.35,-257.59 55.35,-251.59 55.35,-251.59 55.35,-238.31 55.35,-238.31 55.35,-232.31 61.35,-226.31 67.35,-226.31 67.35,-226.31 160.65,-226.31 160.65,-226.31 166.65,-226.31 172.65,-232.31 172.65,-238.31 172.65,-238.31 172.65,-251.59 172.65,-251.59 172.65,-257.59 166.65,-263.59 160.65,-263.59"/>
<text xml:space="preserve" text-anchor="start" x="69.75" y="-245.5" font-family="Helvetica,sans-Serif" font-weight="bold" font-size="11.00" fill="#1e2a38">Optimal Partition</text>
<text xml:space="preserve" text-anchor="start" x="74.25" y="-236.4" font-family="Helvetica,sans-Serif" font-size="9.00" fill="#5b6b7c">fault&#45;isolated zones</text>
</g>
<!-- classical&#45;&gt;partition -->
<g id="edge5" class="edge">
<title>classical&#45;&gt;partition</title>
<path fill="none" stroke="#2e6fa7" stroke-width="1.3" stroke-dasharray="5,2" d="M276.5,-328.04C243.4,-311.32 194.5,-286.61 158.99,-268.68"/>
<polygon fill="#2e6fa7" stroke="#2e6fa7" stroke-width="1.3" points="160.43,-266.27 152.02,-265.16 157.9,-271.27 160.43,-266.27"/>
<text xml:space="preserve" text-anchor="middle" x="243.47" y="-292.34" font-family="Helvetica,sans-Serif" font-size="10.00" fill="#5b6b7c">benchmark</text>
</g>
<!-- maqaoa&#45;&gt;partition -->
<g id="edge6" class="edge">
<title>maqaoa&#45;&gt;partition</title>
<path fill="none" stroke="#6c3fc6" stroke-width="2" d="M110.73,-328.04C111.33,-313.16 112.17,-291.96 112.85,-274.83"/>
<polygon fill="#6c3fc6" stroke="#6c3fc6" stroke-width="2" points="115.63,-275.4 113.15,-267.3 110.03,-275.18 115.63,-275.4"/>
</g>
<!-- guppy -->
<g id="node7" class="node">
<title>guppy</title>
<path fill="#e3f6f2" stroke="#1a9c8a" stroke-width="1.6" d="M158.78,-153.56C158.78,-153.56 69.22,-153.56 69.22,-153.56 63.22,-153.56 57.23,-147.56 57.23,-141.56 57.23,-141.56 57.23,-128.28 57.23,-128.28 57.23,-122.28 63.23,-116.28 69.23,-116.28 69.23,-116.28 158.78,-116.28 158.78,-116.28 164.78,-116.28 170.78,-122.28 170.78,-128.28 170.78,-128.28 170.78,-141.56 170.78,-141.56 170.78,-147.56 164.78,-153.56 158.78,-153.56"/>
<text xml:space="preserve" text-anchor="start" x="71.62" y="-135.47" font-family="Helvetica,sans-Serif" font-weight="bold" font-size="11.00" fill="#1e2a38">Guppy → HUGR</text>
<text xml:space="preserve" text-anchor="start" x="76.5" y="-126.37" font-family="Helvetica,sans-Serif" font-size="9.00" fill="#5b6b7c">gate&#45;level compile</text>
</g>
<!-- partition&#45;&gt;guppy -->
<g id="edge7" class="edge">
<title>partition&#45;&gt;guppy</title>
<path fill="none" stroke="#1a9c8a" stroke-width="2" d="M114,-225.62C114,-209.1 114,-184.5 114,-165.24"/>
<polygon fill="#1a9c8a" stroke="#1a9c8a" stroke-width="2" points="116.8,-165.36 114,-157.36 111.2,-165.36 116.8,-165.36"/>
</g>
<!-- nexus -->
<g id="node8" class="node">
<title>nexus</title>
<path fill="#e3f6f2" stroke="#1a9c8a" stroke-width="1.6" d="M176.03,-61.28C176.03,-61.28 51.97,-61.28 51.97,-61.28 45.98,-61.28 39.97,-55.28 39.97,-49.28 39.97,-49.28 39.97,-36 39.97,-36 39.97,-30 45.97,-24 51.97,-24 51.97,-24 176.03,-24 176.03,-24 182.03,-24 188.03,-30 188.03,-36 188.03,-36 188.03,-49.28 188.03,-49.28 188.03,-55.28 182.03,-61.28 176.03,-61.28"/>
<text xml:space="preserve" text-anchor="start" x="63.75" y="-43.19" font-family="Helvetica,sans-Serif" font-weight="bold" font-size="11.00" fill="#1e2a38">Quantinuum Nexus</text>
<text xml:space="preserve" text-anchor="start" x="54.38" y="-34.09" font-family="Helvetica,sans-Serif" font-size="9.00" fill="#5b6b7c">Selene emulator · 5000 shots</text>
</g>
<!-- guppy&#45;&gt;nexus -->
<g id="edge8" class="edge">
<title>guppy&#45;&gt;nexus</title>
<path fill="none" stroke="#1a9c8a" stroke-width="2" d="M114,-115.65C114,-103.29 114,-86.71 114,-72.57"/>
<polygon fill="#1a9c8a" stroke="#1a9c8a" stroke-width="2" points="116.8,-72.91 114,-64.91 111.2,-72.91 116.8,-72.91"/>
</g>
</g>
</svg>
