<?xml version="1.0" encoding="UTF-8" standalone="no"?>
<!DOCTYPE svg PUBLIC "-//W3C//DTD SVG 1.1//EN"
 "http://www.w3.org/Graphics/SVG/1.1/DTD/svg11.dtd">
<!-- Generated by graphviz version 15.1.0 (20260618.0150)
 -->
<!-- Title: maqaoa&#45;circuit Pages: 1 -->
<svg width="1274pt" height="1687pt"
 viewBox="0.00 0.00 1274.00 1687.00" xmlns="http://www.w3.org/2000/svg" xmlns:xlink="http://www.w3.org/1999/xlink">
<g id="graph0" class="graph" transform="scale(2.77778 2.77778) rotate(0) translate(43.2 564.1)">
<title>maqaoa&#45;circuit</title>
<text xml:space="preserve" text-anchor="start" x="8" y="-505.55" font-family="Helvetica,sans-Serif" font-weight="bold" font-size="13.00" fill="#1e2a38">Multi&#45;Angle Warm&#45;Started QAOA</text>
<text xml:space="preserve" text-anchor="start" x="15.12" y="-496.35" font-family="Helvetica,sans-Serif" font-size="9.00" fill="#5b6b7c">per&#45;edge γ · per&#45;qubit β · bias&#45;preserving mixer</text>
<g id="clust1" class="cluster">
<title>cluster_warmstart</title>
<path fill="none" stroke="#2e6fa7" stroke-width="2.2" d="M20,-297.09C20,-297.09 194,-297.09 194,-297.09 200,-297.09 206,-303.09 206,-309.09 206,-309.09 206,-470.9 206,-470.9 206,-476.9 200,-482.9 194,-482.9 194,-482.9 20,-482.9 20,-482.9 14,-482.9 8,-476.9 8,-470.9 8,-470.9 8,-309.09 8,-309.09 8,-303.09 14,-297.09 20,-297.09"/>
<text xml:space="preserve" text-anchor="start" x="16" y="-468.5" font-family="Helvetica,sans-Serif" font-weight="bold" font-size="12.00" fill="#2e6fa7">Warm Start</text>
</g>
<g id="clust2" class="cluster">
<title>cluster_layer</title>
<path fill="none" stroke="#6c3fc6" stroke-width="2.2" d="M39,-76.28C39,-76.28 175,-76.28 175,-76.28 181,-76.28 187,-82.28 187,-88.28 187,-88.28 187,-265.09 187,-265.09 187,-271.09 181,-277.09 175,-277.09 175,-277.09 39,-277.09 39,-277.09 33,-277.09 27,-271.09 27,-265.09 27,-265.09 27,-88.28 27,-88.28 27,-82.28 33,-76.28 39,-76.28"/>
<text xml:space="preserve" text-anchor="start" x="50" y="-262.69" font-family="Helvetica,sans-Serif" font-weight="bold" font-size="12.00" fill="#6c3fc6">Layer l</text>
<text xml:space="preserve" text-anchor="start" x="35" y="-253.54" font-family="Helvetica,sans-Serif" font-size="9.00" fill="#5b6b7c">repeated p times</text>
</g>
<!-- gw -->
<g id="node1" class="node">
<title>gw</title>
<path fill="#e7f0fa" stroke="#2e6fa7" stroke-width="1.6" d="M178.03,-446.15C178.03,-446.15 35.98,-446.15 35.98,-446.15 29.97,-446.15 23.97,-440.15 23.97,-434.15 23.97,-434.15 23.97,-420.87 23.97,-420.87 23.97,-414.87 29.97,-408.87 35.97,-408.87 35.97,-408.87 178.03,-408.87 178.03,-408.87 184.03,-408.87 190.03,-414.87 190.03,-420.87 190.03,-420.87 190.03,-434.15 190.03,-434.15 190.03,-440.15 184.03,-446.15 178.03,-446.15"/>
<text xml:space="preserve" text-anchor="start" x="38.38" y="-428.06" font-family="Helvetica,sans-Serif" font-weight="bold" font-size="11.00" fill="#1e2a38">Goemans&#45;Williamson SDP</text>
<text xml:space="preserve" text-anchor="start" x="63.12" y="-418.96" font-family="Helvetica,sans-Serif" font-size="9.00" fill="#5b6b7c">continuous relaxation</text>
</g>
<!-- init -->
<g id="node2" class="node">
<title>init</title>
<path fill="#e7f0fa" stroke="#2e6fa7" stroke-width="1.6" d="M154.78,-350.37C154.78,-350.37 59.23,-350.37 59.23,-350.37 53.22,-350.37 47.23,-344.37 47.23,-338.37 47.23,-338.37 47.23,-325.09 47.23,-325.09 47.23,-319.09 53.23,-313.09 59.23,-313.09 59.23,-313.09 154.78,-313.09 154.78,-313.09 160.78,-313.09 166.78,-319.09 166.78,-325.09 166.78,-325.09 166.78,-338.37 166.78,-338.37 166.78,-344.37 160.78,-350.37 154.78,-350.37"/>
<text xml:space="preserve" text-anchor="start" x="64.25" y="-332.28" font-family="Helvetica,sans-Serif" font-weight="bold" font-size="11.00" fill="#1e2a38">Warm&#45;start prep</text>
<text xml:space="preserve" text-anchor="start" x="61.62" y="-323.18" font-family="Helvetica,sans-Serif" font-size="9.00" fill="#5b6b7c">Ry(θᵢ) from cᵢ per qubit</text>
</g>
<!-- gw&#45;&gt;init -->
<g id="edge1" class="edge">
<title>gw&#45;&gt;init</title>
<path fill="none" stroke="#2e6fa7" stroke-width="1.3" d="M107,-408.43C107,-394.89 107,-376.13 107,-360.67"/>
<polygon fill="#2e6fa7" stroke="#2e6fa7" stroke-width="1.3" points="109.8,-361.04 107,-353.04 104.2,-361.04 109.8,-361.04"/>
</g>
<!-- cost -->
<g id="node3" class="node">
<title>cost</title>
<path fill="#efe8fb" stroke="#6c3fc6" stroke-width="1.6" d="M159.28,-232.09C159.28,-232.09 54.72,-232.09 54.72,-232.09 48.72,-232.09 42.72,-226.09 42.72,-220.09 42.72,-220.09 42.72,-206.81 42.72,-206.81 42.72,-200.81 48.72,-194.81 54.72,-194.81 54.72,-194.81 159.28,-194.81 159.28,-194.81 165.28,-194.81 171.28,-200.81 171.28,-206.81 171.28,-206.81 171.28,-220.09 171.28,-220.09 171.28,-226.09 165.28,-232.09 159.28,-232.09"/>
<text xml:space="preserve" text-anchor="start" x="74" y="-214" font-family="Helvetica,sans-Serif" font-weight="bold" font-size="11.00" fill="#1e2a38">Cost Unitary</text>
<text xml:space="preserve" text-anchor="start" x="57.12" y="-204.9" font-family="Helvetica,sans-Serif" font-size="9.00" fill="#5b6b7c">U(H_C, γ) · per&#45;edge γᵢⱼ</text>
</g>
<!-- init&#45;&gt;cost -->
<g id="edge2" class="edge">
<title>init&#45;&gt;cost</title>
<path fill="none" stroke="#6c3fc6" stroke-width="2" d="M107,-312.31C107,-293.85 107,-265.16 107,-243.62"/>
<polygon fill="#6c3fc6" stroke="#6c3fc6" stroke-width="2" points="109.8,-243.82 107,-235.82 104.2,-243.82 109.8,-243.82"/>
</g>
<!-- mixer -->
<g id="node4" class="node">
<title>mixer</title>
<path fill="#efe8fb" stroke="#6c3fc6" stroke-width="1.6" d="M152.9,-129.56C152.9,-129.56 55.1,-129.56 55.1,-129.56 49.1,-129.56 43.1,-123.56 43.1,-117.56 43.1,-117.56 43.1,-104.28 43.1,-104.28 43.1,-98.28 49.1,-92.28 55.1,-92.28 55.1,-92.28 152.9,-92.28 152.9,-92.28 158.9,-92.28 164.9,-98.28 164.9,-104.28 164.9,-104.28 164.9,-117.56 164.9,-117.56 164.9,-123.56 158.9,-129.56 152.9,-129.56"/>
<text xml:space="preserve" text-anchor="start" x="69.12" y="-111.47" font-family="Helvetica,sans-Serif" font-weight="bold" font-size="11.00" fill="#1e2a38">Mixer Unitary</text>
<text xml:space="preserve" text-anchor="start" x="57.5" y="-102.37" font-family="Helvetica,sans-Serif" font-size="9.00" fill="#5b6b7c">U(H_B, β) · per&#45;qubit βᵢ</text>
</g>
<!-- cost&#45;&gt;mixer -->
<g id="edge3" class="edge">
<title>cost&#45;&gt;mixer</title>
<path fill="none" stroke="#6c3fc6" stroke-width="2" d="M102,-194.36C100.01,-186.3 97.98,-176.65 97,-167.81 96.04,-159.09 96.61,-149.62 97.75,-141"/>
<polygon fill="#6c3fc6" stroke="#6c3fc6" stroke-width="2" points="100.49,-141.62 99.03,-133.27 94.96,-140.71 100.49,-141.62"/>
</g>
<!-- mixer&#45;&gt;cost -->
<g id="edge5" class="edge">
<title>mixer&#45;&gt;cost</title>
<path fill="none" stroke="#94a3b3" stroke-width="1.3" stroke-dasharray="5,2" d="M104.55,-130.24C105,-145.37 105.65,-167.09 106.16,-184.41"/>
<polygon fill="#94a3b3" stroke="#94a3b3" stroke-width="1.3" points="103.35,-184.13 106.39,-192.04 108.95,-183.96 103.35,-184.13"/>
<text xml:space="preserve" text-anchor="middle" x="125.84" y="-158.31" font-family="Helvetica,sans-Serif" font-size="10.00" fill="#5b6b7c">×p layers</text>
</g>
<!-- measure -->
<g id="node5" class="node">
<title>measure</title>
<path fill="#e4f6e9" stroke="#2e9e52" stroke-width="1.6" d="M162.28,-37.28C162.28,-37.28 45.72,-37.28 45.72,-37.28 39.72,-37.28 33.72,-31.28 33.72,-25.28 33.72,-25.28 33.72,-12 33.72,-12 33.72,-6 39.72,0 45.72,0 45.72,0 162.28,0 162.28,0 168.28,0 174.28,-6 174.28,-12 174.28,-12 174.28,-25.28 174.28,-25.28 174.28,-31.28 168.28,-37.28 162.28,-37.28"/>
<text xml:space="preserve" text-anchor="start" x="68.75" y="-19.19" font-family="Helvetica,sans-Serif" font-weight="bold" font-size="11.00" fill="#1e2a38">Measurement</text>
<text xml:space="preserve" text-anchor="start" x="48.12" y="-10.09" font-family="Helvetica,sans-Serif" font-size="9.00" fill="#5b6b7c">bitstring x → Max&#45;Cut value</text>
</g>
<!-- mixer&#45;&gt;measure -->
<g id="edge4" class="edge">
<title>mixer&#45;&gt;measure</title>
<path fill="none" stroke="#2e9e52" stroke-width="2" d="M104,-91.65C104,-79.29 104,-62.71 104,-48.57"/>
<polygon fill="#2e9e52" stroke="#2e9e52" stroke-width="2" points="106.8,-48.91 104,-40.91 101.2,-48.91 106.8,-48.91"/>
</g>
<!-- note -->
<g id="node6" class="node">
<title>note</title>
<path fill="#f8fafc" stroke="#8a93a0" stroke-width="1.6" stroke-dasharray="5,2" d="M360.15,-449.65C360.15,-449.65 233.85,-449.65 233.85,-449.65 227.85,-449.65 221.85,-443.65 221.85,-437.65 221.85,-437.65 221.85,-417.37 221.85,-417.37 221.85,-411.37 227.85,-405.37 233.85,-405.37 233.85,-405.37 360.15,-405.37 360.15,-405.37 366.15,-405.37 372.15,-411.37 372.15,-417.37 372.15,-417.37 372.15,-437.65 372.15,-437.65 372.15,-443.65 366.15,-449.65 360.15,-449.65"/>
<text xml:space="preserve" text-anchor="start" x="262.88" y="-433.46" font-family="Helvetica,sans-Serif" font-weight="bold" font-size="9.00" fill="#1e2a38">Standard QAOA</text>
<text xml:space="preserve" text-anchor="start" x="250.5" y="-424.46" font-family="Helvetica,sans-Serif" font-size="9.00" fill="#5b6b7c">2 shared angles / layer</text>
<text xml:space="preserve" text-anchor="start" x="236.25" y="-415.46" font-family="Helvetica,sans-Serif" font-size="9.00" fill="#94a3b3">MA&#45;QAOA: m+n angles / layer</text>
</g>
<!-- note&#45;&gt;cost -->
<g id="edge6" class="edge">
<title>note&#45;&gt;cost</title>
<path fill="none" stroke="#94a3b3" stroke-width="1.3" stroke-dasharray="1,5" d="M286.07,-404.79C271.82,-377.73 245.01,-330.94 214,-297.09 190.69,-271.65 158.87,-248.18 136,-232.8"/>
</g>
</g>
</svg>
