<?xml version="1.0" encoding="UTF-8" standalone="no"?>
<!DOCTYPE svg PUBLIC "-//W3C//DTD SVG 1.1//EN"
 "http://www.w3.org/Graphics/SVG/1.1/DTD/svg11.dtd">
<!-- Generated by graphviz version 15.1.0 (20260618.0150)
 -->
<!-- Title: benchmark&#45;tree Pages: 1 -->
<svg width="1461pt" height="1209pt"
 viewBox="0.00 0.00 1461.00 1209.00" xmlns="http://www.w3.org/2000/svg" xmlns:xlink="http://www.w3.org/1999/xlink">
<g id="graph0" class="graph" transform="scale(2.36273 2.36273) rotate(0) translate(43.2 468.32)">
<title>benchmark&#45;tree</title>
<text xml:space="preserve" text-anchor="start" x="8" y="-409.77" font-family="Helvetica,sans-Serif" font-weight="bold" font-size="13.00" fill="#1e2a38">Classical vs. Quantum&#45;Hybrid Benchmark</text>
<text xml:space="preserve" text-anchor="start" x="26" y="-400.57" font-family="Helvetica,sans-Serif" font-size="9.00" fill="#5b6b7c">Fault&#45;Zone Partitioning (Max&#45;Cut) on the 8&#45;node ICE grid</text>
<g id="clust1" class="cluster">
<title>cluster_classical</title>
<path fill="none" stroke="#2e6fa7" stroke-width="2.2" d="M20,-231.81C20,-231.81 422,-231.81 422,-231.81 428,-231.81 434,-237.81 434,-243.81 434,-243.81 434,-309.84 434,-309.84 434,-315.84 428,-321.84 422,-321.84 422,-321.84 20,-321.84 20,-321.84 14,-321.84 8,-315.84 8,-309.84 8,-309.84 8,-243.81 8,-243.81 8,-237.81 14,-231.81 20,-231.81"/>
<text xml:space="preserve" text-anchor="start" x="16" y="-307.44" font-family="Helvetica,sans-Serif" font-weight="bold" font-size="12.00" fill="#2e6fa7">Classical Baselines</text>
</g>
<g id="clust2" class="cluster">
<title>cluster_quantum</title>
<path fill="none" stroke="#6c3fc6" stroke-width="2.2" d="M354,-8C354,-8 512,-8 512,-8 518,-8 524,-14 524,-20 524,-20 524,-199.81 524,-199.81 524,-205.81 518,-211.81 512,-211.81 512,-211.81 354,-211.81 354,-211.81 348,-211.81 342,-205.81 342,-199.81 342,-199.81 342,-20 342,-20 342,-14 348,-8 354,-8"/>
<text xml:space="preserve" text-anchor="start" x="350" y="-197.41" font-family="Helvetica,sans-Serif" font-weight="bold" font-size="12.00" fill="#6c3fc6">Quantum&#45;Hybrid</text>
</g>
<!-- root -->
<g id="node1" class="node">
<title>root</title>
<path fill="#f8fafc" stroke="#8a93a0" stroke-width="1.6" d="M376.77,-395.12C376.77,-395.12 251.22,-395.12 251.22,-395.12 245.22,-395.12 239.22,-389.12 239.22,-383.12 239.22,-383.12 239.22,-369.84 239.22,-369.84 239.22,-363.84 245.22,-357.84 251.22,-357.84 251.22,-357.84 376.77,-357.84 376.77,-357.84 382.77,-357.84 388.77,-363.84 388.77,-369.84 388.77,-369.84 388.77,-383.12 388.77,-383.12 388.77,-389.12 382.77,-395.12 376.77,-395.12"/>
<text xml:space="preserve" text-anchor="start" x="253.62" y="-377.03" font-family="Helvetica,sans-Serif" font-weight="bold" font-size="11.00" fill="#1e2a38">Fault&#45;Zone Partitioning</text>
<text xml:space="preserve" text-anchor="start" x="296.75" y="-367.93" font-family="Helvetica,sans-Serif" font-size="9.00" fill="#5b6b7c">Max&#45;Cut</text>
</g>
<!-- bf -->
<g id="node2" class="node">
<title>bf</title>
<path fill="#e7f0fa" stroke="#2e6fa7" stroke-width="1.6" d="M105.65,-285.09C105.65,-285.09 36.35,-285.09 36.35,-285.09 30.35,-285.09 24.35,-279.09 24.35,-273.09 24.35,-273.09 24.35,-259.81 24.35,-259.81 24.35,-253.81 30.35,-247.81 36.35,-247.81 36.35,-247.81 105.65,-247.81 105.65,-247.81 111.65,-247.81 117.65,-253.81 117.65,-259.81 117.65,-259.81 117.65,-273.09 117.65,-273.09 117.65,-279.09 111.65,-285.09 105.65,-285.09"/>
<text xml:space="preserve" text-anchor="start" x="39.88" y="-267" font-family="Helvetica,sans-Serif" font-weight="bold" font-size="11.00" fill="#1e2a38">Brute Force</text>
<text xml:space="preserve" text-anchor="start" x="38.75" y="-257.9" font-family="Helvetica,sans-Serif" font-size="9.00" fill="#5b6b7c">exact · r = 1.000</text>
</g>
<!-- root&#45;&gt;bf -->
<g id="edge1" class="edge">
<title>root&#45;&gt;bf</title>
<path fill="none" stroke="#2e6fa7" stroke-width="1.3" d="M238.51,-360.53C205.18,-352.06 166.32,-339.53 134,-321.84 119.99,-314.17 106.34,-302.99 95.35,-292.76"/>
<polygon fill="#2e6fa7" stroke="#2e6fa7" stroke-width="1.3" points="97.32,-290.77 89.61,-287.24 93.44,-294.8 97.32,-290.77"/>
</g>
<!-- gw -->
<g id="node3" class="node">
<title>gw</title>
<path fill="#e7f0fa" stroke="#2e6fa7" stroke-width="1.6" d="M277.9,-285.09C277.9,-285.09 162.1,-285.09 162.1,-285.09 156.1,-285.09 150.1,-279.09 150.1,-273.09 150.1,-273.09 150.1,-259.81 150.1,-259.81 150.1,-253.81 156.1,-247.81 162.1,-247.81 162.1,-247.81 277.9,-247.81 277.9,-247.81 283.9,-247.81 289.9,-253.81 289.9,-259.81 289.9,-259.81 289.9,-273.09 289.9,-273.09 289.9,-279.09 283.9,-285.09 277.9,-285.09"/>
<text xml:space="preserve" text-anchor="start" x="164.5" y="-267" font-family="Helvetica,sans-Serif" font-weight="bold" font-size="11.00" fill="#1e2a38">Goemans&#45;Williamson</text>
<text xml:space="preserve" text-anchor="start" x="189.25" y="-257.9" font-family="Helvetica,sans-Serif" font-size="9.00" fill="#5b6b7c">SDP · r ≥ 0.878</text>
</g>
<!-- root&#45;&gt;gw -->
<g id="edge2" class="edge">
<title>root&#45;&gt;gw</title>
<path fill="none" stroke="#2e6fa7" stroke-width="1.3" d="M298.05,-357.15C282.79,-339.62 259.63,-312.99 242.5,-293.3"/>
<polygon fill="#2e6fa7" stroke="#2e6fa7" stroke-width="1.3" points="244.68,-291.55 237.32,-287.35 240.45,-295.22 244.68,-291.55"/>
</g>
<!-- greedy -->
<g id="node4" class="node">
<title>greedy</title>
<path fill="#e7f0fa" stroke="#2e6fa7" stroke-width="1.6" d="M405.77,-285.09C405.77,-285.09 334.23,-285.09 334.23,-285.09 328.23,-285.09 322.23,-279.09 322.23,-273.09 322.23,-273.09 322.23,-259.81 322.23,-259.81 322.23,-253.81 328.23,-247.81 334.23,-247.81 334.23,-247.81 405.77,-247.81 405.77,-247.81 411.77,-247.81 417.77,-253.81 417.77,-259.81 417.77,-259.81 417.77,-273.09 417.77,-273.09 417.77,-279.09 411.77,-285.09 405.77,-285.09"/>
<text xml:space="preserve" text-anchor="start" x="351.25" y="-267" font-family="Helvetica,sans-Serif" font-weight="bold" font-size="11.00" fill="#1e2a38">Greedy</text>
<text xml:space="preserve" text-anchor="start" x="336.62" y="-257.9" font-family="Helvetica,sans-Serif" font-size="9.00" fill="#5b6b7c">heuristic · r ≈ 0.5</text>
</g>
<!-- root&#45;&gt;greedy -->
<g id="edge3" class="edge">
<title>root&#45;&gt;greedy</title>
<path fill="none" stroke="#2e6fa7" stroke-width="1.3" d="M323.5,-357.15C332.39,-340 345.78,-314.17 355.92,-294.62"/>
<polygon fill="#2e6fa7" stroke="#2e6fa7" stroke-width="1.3" points="358.35,-296 359.55,-287.61 353.38,-293.43 358.35,-296"/>
</g>
<!-- maqaoa -->
<g id="node5" class="node">
<title>maqaoa</title>
<path fill="#efe8fb" stroke="#6c3fc6" stroke-width="1.6" d="M475.52,-175.06C475.52,-175.06 390.48,-175.06 390.48,-175.06 384.48,-175.06 378.48,-169.06 378.48,-163.06 378.48,-163.06 378.48,-149.78 378.48,-149.78 378.48,-143.78 384.48,-137.78 390.48,-137.78 390.48,-137.78 475.52,-137.78 475.52,-137.78 481.52,-137.78 487.52,-143.78 487.52,-149.78 487.52,-149.78 487.52,-163.06 487.52,-163.06 487.52,-169.06 481.52,-175.06 475.52,-175.06"/>
<text xml:space="preserve" text-anchor="start" x="395.12" y="-156.97" font-family="Helvetica,sans-Serif" font-weight="bold" font-size="11.00" fill="#1e2a38">MA&#45;QAOA p=1</text>
<text xml:space="preserve" text-anchor="start" x="392.88" y="-147.87" font-family="Helvetica,sans-Serif" font-size="9.00" fill="#5b6b7c">idealized · r ≈ 0.987</text>
</g>
<!-- root&#45;&gt;maqaoa -->
<g id="edge4" class="edge">
<title>root&#45;&gt;maqaoa</title>
<path fill="none" stroke="#6c3fc6" stroke-width="2" d="M389.51,-360.24C409.96,-352.28 429.79,-340.2 442,-321.84 469.19,-280.96 455.85,-220.94 444.12,-185.85"/>
<polygon fill="#6c3fc6" stroke="#6c3fc6" stroke-width="2" points="446.89,-185.28 441.59,-178.66 441.61,-187.14 446.89,-185.28"/>
</g>
<!-- greedy&#45;&gt;maqaoa -->
<!-- maqaoa_nexus -->
<g id="node6" class="node">
<title>maqaoa_nexus</title>
<path fill="#efe8fb" stroke="#6c3fc6" stroke-width="1.6" d="M496.15,-61.28C496.15,-61.28 369.85,-61.28 369.85,-61.28 363.85,-61.28 357.85,-55.28 357.85,-49.28 357.85,-49.28 357.85,-36 357.85,-36 357.85,-30 363.85,-24 369.85,-24 369.85,-24 496.15,-24 496.15,-24 502.15,-24 508.15,-30 508.15,-36 508.15,-36 508.15,-49.28 508.15,-49.28 508.15,-55.28 502.15,-61.28 496.15,-61.28"/>
<text xml:space="preserve" text-anchor="start" x="380.12" y="-43.19" font-family="Helvetica,sans-Serif" font-weight="bold" font-size="11.00" fill="#1e2a38">MA&#45;QAOA on Nexus</text>
<text xml:space="preserve" text-anchor="start" x="372.25" y="-34.09" font-family="Helvetica,sans-Serif" font-size="9.00" fill="#5b6b7c">Selene, 5000 shots · r ≈ 0.987</text>
</g>
<!-- maqaoa&#45;&gt;maqaoa_nexus -->
<g id="edge5" class="edge">
<title>maqaoa&#45;&gt;maqaoa_nexus</title>
<path fill="none" stroke="#6c3fc6" stroke-width="1.3" d="M433,-137.46C433,-119.72 433,-92.33 433,-71.72"/>
<polygon fill="#6c3fc6" stroke="#6c3fc6" stroke-width="1.3" points="435.8,-71.89 433,-63.89 430.2,-71.89 435.8,-71.89"/>
<text xml:space="preserve" text-anchor="middle" x="463.38" y="-101.28" font-family="Helvetica,sans-Serif" font-size="10.00" fill="#5b6b7c">same circuit,</text>
<text xml:space="preserve" text-anchor="middle" x="463.38" y="-90.03" font-family="Helvetica,sans-Serif" font-size="10.00" fill="#5b6b7c">real execution</text>
</g>
</g>
</svg>
