<?xml version="1.0" encoding="UTF-8" standalone="no"?>
<!DOCTYPE svg PUBLIC "-//W3C//DTD SVG 1.1//EN"
 "http://www.w3.org/Graphics/SVG/1.1/DTD/svg11.dtd">
<!-- Generated by graphviz version 15.1.0 (20260618.0150)
 -->
<!-- Title: guppy&#45;nexus&#45;execution Pages: 1 -->
<svg width="1163pt" height="2184pt"
 viewBox="0.00 0.00 1163.00 2184.00" xmlns="http://www.w3.org/2000/svg" xmlns:xlink="http://www.w3.org/1999/xlink">
<g id="graph0" class="graph" transform="scale(2.77778 2.77778) rotate(0) translate(43.2 743.16)">
<title>guppy&#45;nexus&#45;execution</title>
<text xml:space="preserve" text-anchor="start" x="8" y="-684.61" font-family="Helvetica,sans-Serif" font-weight="bold" font-size="13.00" fill="#1e2a38">Real Execution on Quantinuum Nexus</text>
<text xml:space="preserve" text-anchor="start" x="55.25" y="-675.41" font-family="Helvetica,sans-Serif" font-size="9.00" fill="#5b6b7c">guppy_qaoa.py → run_on_nexus.py</text>
<g id="clust1" class="cluster">
<title>cluster_build</title>
<path fill="none" stroke="#1a9c8a" stroke-width="2.2" d="M20,-379.12C20,-379.12 230,-379.12 230,-379.12 236,-379.12 242,-385.12 242,-391.12 242,-391.12 242,-649.96 242,-649.96 242,-655.96 236,-661.96 230,-661.96 230,-661.96 20,-661.96 20,-661.96 14,-661.96 8,-655.96 8,-649.96 8,-649.96 8,-391.12 8,-391.12 8,-385.12 14,-379.12 20,-379.12"/>
<text xml:space="preserve" text-anchor="start" x="25.75" y="-647.56" font-family="Helvetica,sans-Serif" font-weight="bold" font-size="12.00" fill="#1a9c8a">Circuit Build</text>
<text xml:space="preserve" text-anchor="start" x="16" y="-638.41" font-family="Helvetica,sans-Serif" font-size="9.00" fill="#5b6b7c">guppy_qaoa.py · local</text>
</g>
<g id="clust2" class="cluster">
<title>cluster_nexus</title>
<path fill="none" stroke="#1a9c8a" stroke-width="2.2" d="M36,-76.28C36,-76.28 214,-76.28 214,-76.28 220,-76.28 226,-82.28 226,-88.28 226,-88.28 226,-347.12 226,-347.12 226,-353.12 220,-359.12 214,-359.12 214,-359.12 36,-359.12 36,-359.12 30,-359.12 24,-353.12 24,-347.12 24,-347.12 24,-88.28 24,-88.28 24,-82.28 30,-76.28 36,-76.28"/>
<text xml:space="preserve" text-anchor="start" x="49.62" y="-344.72" font-family="Helvetica,sans-Serif" font-weight="bold" font-size="12.00" fill="#1a9c8a">Quantinuum Nexus</text>
<text xml:space="preserve" text-anchor="start" x="32" y="-335.57" font-family="Helvetica,sans-Serif" font-size="9.00" fill="#5b6b7c">run_on_nexus.py · Selene emulator</text>
</g>
<!-- params -->
<g id="node1" class="node">
<title>params</title>
<path fill="#efe8fb" stroke="#6c3fc6" stroke-width="1.6" d="M178.03,-616.96C178.03,-616.96 71.97,-616.96 71.97,-616.96 65.97,-616.96 59.97,-610.96 59.97,-604.96 59.97,-604.96 59.97,-591.68 59.97,-591.68 59.97,-585.68 65.97,-579.68 71.97,-579.68 71.97,-579.68 178.03,-579.68 178.03,-579.68 184.03,-579.68 190.03,-585.68 190.03,-591.68 190.03,-591.68 190.03,-604.96 190.03,-604.96 190.03,-610.96 184.03,-616.96 178.03,-616.96"/>
<text xml:space="preserve" text-anchor="start" x="83.38" y="-598.87" font-family="Helvetica,sans-Serif" font-weight="bold" font-size="11.00" fill="#1e2a38">Optimized γ*, β*</text>
<text xml:space="preserve" text-anchor="start" x="74.38" y="-589.77" font-family="Helvetica,sans-Serif" font-size="9.00" fill="#5b6b7c">NumPy statevector result</text>
</g>
<!-- guppy -->
<g id="node2" class="node">
<title>guppy</title>
<path fill="#e3f6f2" stroke="#1a9c8a" stroke-width="1.6" d="M214.4,-524.68C214.4,-524.68 35.6,-524.68 35.6,-524.68 29.6,-524.68 23.6,-518.68 23.6,-512.68 23.6,-512.68 23.6,-499.4 23.6,-499.4 23.6,-493.4 29.6,-487.4 35.6,-487.4 35.6,-487.4 214.4,-487.4 214.4,-487.4 220.4,-487.4 226.4,-493.4 226.4,-499.4 226.4,-499.4 226.4,-512.68 226.4,-512.68 226.4,-518.68 220.4,-524.68 214.4,-524.68"/>
<text xml:space="preserve" text-anchor="start" x="88.62" y="-506.59" font-family="Helvetica,sans-Serif" font-weight="bold" font-size="11.00" fill="#1e2a38">Guppy Circuit</text>
<text xml:space="preserve" text-anchor="start" x="38" y="-497.49" font-family="Helvetica,sans-Serif" font-size="9.00" fill="#5b6b7c">Ry warm&#45;start · zz_phase · Ry&#45;Rz&#45;Ry mixer</text>
</g>
<!-- params&#45;&gt;guppy -->
<g id="edge1" class="edge">
<title>params&#45;&gt;guppy</title>
<path fill="none" stroke="#1a9c8a" stroke-width="1.3" d="M125,-579.05C125,-566.45 125,-549.45 125,-535.13"/>
<polygon fill="#1a9c8a" stroke="#1a9c8a" stroke-width="1.3" points="127.8,-535.25 125,-527.25 122.2,-535.25 127.8,-535.25"/>
</g>
<!-- compare -->
<g id="node7" class="node">
<title>compare</title>
<path fill="#e4f6e9" stroke="#2e9e52" stroke-width="1.6" d="M216.65,-37.28C216.65,-37.28 33.35,-37.28 33.35,-37.28 27.35,-37.28 21.35,-31.28 21.35,-25.28 21.35,-25.28 21.35,-12 21.35,-12 21.35,-6 27.35,0 33.35,0 33.35,0 216.65,0 216.65,0 222.65,0 228.65,-6 228.65,-12 228.65,-12 228.65,-25.28 228.65,-25.28 228.65,-31.28 222.65,-37.28 216.65,-37.28"/>
<text xml:space="preserve" text-anchor="start" x="83.38" y="-19.19" font-family="Helvetica,sans-Serif" font-weight="bold" font-size="11.00" fill="#1e2a38">r = 0.987 ≈ 0.987</text>
<text xml:space="preserve" text-anchor="start" x="35.75" y="-10.09" font-family="Helvetica,sans-Serif" font-size="9.00" fill="#5b6b7c">idealized vs. Nexus, agree within shot noise</text>
</g>
<!-- params&#45;&gt;compare -->
<g id="edge7" class="edge">
<title>params&#45;&gt;compare</title>
<path fill="none" stroke="#94a3b3" stroke-width="1.3" stroke-dasharray="5,2" d="M176.87,-578.97C201.25,-567.43 228,-549.86 242,-524.68 250.05,-510.2 242.16,-503.97 242,-487.4 240.22,-304.65 330.38,-231.55 234,-76.28 224.89,-61.6 210.63,-50.54 195.4,-42.28"/>
<polygon fill="#94a3b3" stroke="#94a3b3" stroke-width="1.3" points="197.02,-39.96 188.62,-38.86 194.5,-44.96 197.02,-39.96"/>
<text xml:space="preserve" text-anchor="middle" x="302.45" y="-291.6" font-family="Helvetica,sans-Serif" font-size="10.00" fill="#5b6b7c">idealized ratio</text>
</g>
<!-- hugr -->
<g id="node3" class="node">
<title>hugr</title>
<path fill="#e3f6f2" stroke="#1a9c8a" stroke-width="1.6" d="M176.9,-432.4C176.9,-432.4 73.1,-432.4 73.1,-432.4 67.1,-432.4 61.1,-426.4 61.1,-420.4 61.1,-420.4 61.1,-407.12 61.1,-407.12 61.1,-401.12 67.1,-395.12 73.1,-395.12 73.1,-395.12 176.9,-395.12 176.9,-395.12 182.9,-395.12 188.9,-401.12 188.9,-407.12 188.9,-407.12 188.9,-420.4 188.9,-420.4 188.9,-426.4 182.9,-432.4 176.9,-432.4"/>
<text xml:space="preserve" text-anchor="start" x="75.5" y="-414.31" font-family="Helvetica,sans-Serif" font-weight="bold" font-size="11.00" fill="#1e2a38">compile() → HUGR</text>
<text xml:space="preserve" text-anchor="start" x="94.25" y="-405.21" font-family="Helvetica,sans-Serif" font-size="9.00" fill="#5b6b7c">Quantinuum IR</text>
</g>
<!-- guppy&#45;&gt;hugr -->
<g id="edge2" class="edge">
<title>guppy&#45;&gt;hugr</title>
<path fill="none" stroke="#1a9c8a" stroke-width="2" d="M125,-486.77C125,-474.41 125,-457.83 125,-443.69"/>
<polygon fill="#1a9c8a" stroke="#1a9c8a" stroke-width="2" points="127.8,-444.03 125,-436.03 122.2,-444.03 127.8,-444.03"/>
</g>
<!-- upload -->
<g id="node4" class="node">
<title>upload</title>
<path fill="#e3f6f2" stroke="#1a9c8a" stroke-width="1.6" d="M196.03,-314.12C196.03,-314.12 53.98,-314.12 53.98,-314.12 47.97,-314.12 41.97,-308.12 41.97,-302.12 41.97,-302.12 41.97,-288.84 41.97,-288.84 41.97,-282.84 47.97,-276.84 53.97,-276.84 53.97,-276.84 196.03,-276.84 196.03,-276.84 202.03,-276.84 208.03,-282.84 208.03,-288.84 208.03,-288.84 208.03,-302.12 208.03,-302.12 208.03,-308.12 202.03,-314.12 196.03,-314.12"/>
<text xml:space="preserve" text-anchor="start" x="93.5" y="-296.03" font-family="Helvetica,sans-Serif" font-weight="bold" font-size="11.00" fill="#1e2a38">hugr.upload</text>
<text xml:space="preserve" text-anchor="start" x="56.38" y="-286.93" font-family="Helvetica,sans-Serif" font-size="9.00" fill="#5b6b7c">project: quantum&#45;grid&#45;intelligence</text>
</g>
<!-- hugr&#45;&gt;upload -->
<g id="edge3" class="edge">
<title>hugr&#45;&gt;upload</title>
<path fill="none" stroke="#1a9c8a" stroke-width="2" d="M125,-394.34C125,-375.88 125,-347.19 125,-325.65"/>
<polygon fill="#1a9c8a" stroke="#1a9c8a" stroke-width="2" points="127.8,-325.85 125,-317.85 122.2,-325.85 127.8,-325.85"/>
</g>
<!-- job -->
<g id="node5" class="node">
<title>job</title>
<path fill="#e3f6f2" stroke="#1a9c8a" stroke-width="1.6" d="M181.4,-221.84C181.4,-221.84 68.6,-221.84 68.6,-221.84 62.6,-221.84 56.6,-215.84 56.6,-209.84 56.6,-209.84 56.6,-196.56 56.6,-196.56 56.6,-190.56 62.6,-184.56 68.6,-184.56 68.6,-184.56 181.4,-184.56 181.4,-184.56 187.4,-184.56 193.4,-190.56 193.4,-196.56 193.4,-196.56 193.4,-209.84 193.4,-209.84 193.4,-215.84 187.4,-221.84 181.4,-221.84"/>
<text xml:space="preserve" text-anchor="start" x="92.75" y="-203.75" font-family="Helvetica,sans-Serif" font-weight="bold" font-size="11.00" fill="#1e2a38">Execute Job</text>
<text xml:space="preserve" text-anchor="start" x="71" y="-194.65" font-family="Helvetica,sans-Serif" font-size="9.00" fill="#5b6b7c">SeleneConfig · 5000 shots</text>
</g>
<!-- upload&#45;&gt;job -->
<g id="edge4" class="edge">
<title>upload&#45;&gt;job</title>
<path fill="none" stroke="#1a9c8a" stroke-width="1.3" d="M125,-276.21C125,-263.61 125,-246.61 125,-232.29"/>
<polygon fill="#1a9c8a" stroke="#1a9c8a" stroke-width="1.3" points="127.8,-232.41 125,-224.41 122.2,-232.41 127.8,-232.41"/>
</g>
<!-- counts -->
<g id="node6" class="node">
<title>counts</title>
<path fill="#e3f6f2" stroke="#1a9c8a" stroke-width="1.6" d="M197.9,-129.56C197.9,-129.56 52.1,-129.56 52.1,-129.56 46.1,-129.56 40.1,-123.56 40.1,-117.56 40.1,-117.56 40.1,-104.28 40.1,-104.28 40.1,-98.28 46.1,-92.28 52.1,-92.28 52.1,-92.28 197.9,-92.28 197.9,-92.28 203.9,-92.28 209.9,-98.28 209.9,-104.28 209.9,-104.28 209.9,-117.56 209.9,-117.56 209.9,-123.56 203.9,-129.56 197.9,-129.56"/>
<text xml:space="preserve" text-anchor="start" x="69.12" y="-111.47" font-family="Helvetica,sans-Serif" font-weight="bold" font-size="11.00" fill="#1e2a38">Measurement Counts</text>
<text xml:space="preserve" text-anchor="start" x="54.5" y="-102.37" font-family="Helvetica,sans-Serif" font-size="9.00" fill="#5b6b7c">register &quot;c&quot; → energy_from_counts</text>
</g>
<!-- job&#45;&gt;counts -->
<g id="edge5" class="edge">
<title>job&#45;&gt;counts</title>
<path fill="none" stroke="#1a9c8a" stroke-width="1.3" d="M125,-183.93C125,-171.33 125,-154.33 125,-140.01"/>
<polygon fill="#1a9c8a" stroke="#1a9c8a" stroke-width="1.3" points="127.8,-140.13 125,-132.13 122.2,-140.13 127.8,-140.13"/>
</g>
<!-- counts&#45;&gt;compare -->
<g id="edge6" class="edge">
<title>counts&#45;&gt;compare</title>
<path fill="none" stroke="#2e9e52" stroke-width="2" d="M125,-91.65C125,-79.29 125,-62.71 125,-48.57"/>
<polygon fill="#2e9e52" stroke="#2e9e52" stroke-width="2" points="127.8,-48.91 125,-40.91 122.2,-48.91 127.8,-48.91"/>
</g>
</g>
</svg>
