<?xml version="1.0" encoding="UTF-8" standalone="no"?>
<!DOCTYPE svg PUBLIC "-//W3C//DTD SVG 1.1//EN"
 "http://www.w3.org/Graphics/SVG/1.1/DTD/svg11.dtd">
<!-- Generated by graphviz version 15.1.0 (20260618.0150)
 -->
<!-- Title: grid&#45;topology&#45;schematic Pages: 1 -->
<svg width="1618pt" height="2197pt"
 viewBox="0.00 0.00 1618.00 2197.00" xmlns="http://www.w3.org/2000/svg" xmlns:xlink="http://www.w3.org/1999/xlink">
<g id="graph0" class="graph" transform="scale(2.77778 2.77778) rotate(0) translate(43.2 747.83)">
<title>grid&#45;topology&#45;schematic</title>
<text xml:space="preserve" text-anchor="start" x="8" y="-689.28" font-family="Helvetica,sans-Serif" font-weight="bold" font-size="13.00" fill="#1e2a38">ICE Grid — Conceptual Topology &amp; Optimal Fault&#45;Zone Cut</text>
<text xml:space="preserve" text-anchor="start" x="53.75" y="-680.08" font-family="Helvetica,sans-Serif" font-size="9.00" fill="#5b6b7c">colored by generation type · red = edges crossing the optimal partition</text>
<!-- 0 -->
<g id="node1" class="node">
<title>0</title>
<path fill="#dcefe3" stroke="#3b7a57" stroke-width="1.6" d="M167.4,-570.71C167.4,-570.71 110.1,-570.71 110.1,-570.71 104.1,-570.71 98.1,-564.71 98.1,-558.71 98.1,-558.71 98.1,-545.43 98.1,-545.43 98.1,-539.43 104.1,-533.43 110.1,-533.43 110.1,-533.43 167.4,-533.43 167.4,-533.43 173.4,-533.43 179.4,-539.43 179.4,-545.43 179.4,-545.43 179.4,-558.71 179.4,-558.71 179.4,-564.71 173.4,-570.71 167.4,-570.71"/>
<text xml:space="preserve" text-anchor="start" x="121.5" y="-552.62" font-family="Helvetica,sans-Serif" font-weight="bold" font-size="11.00" fill="#1e2a38">Arenal</text>
<text xml:space="preserve" text-anchor="start" x="112.5" y="-543.52" font-family="Helvetica,sans-Serif" font-size="9.00" fill="#5b6b7c">hydroelectric</text>
</g>
<!-- 1 -->
<g id="node2" class="node">
<title>1</title>
<path fill="#c9e6d3" stroke="#3b7a57" stroke-width="1.6" d="M69.3,-674.63C69.3,-674.63 12,-674.63 12,-674.63 6,-674.63 0,-668.63 0,-662.63 0,-662.63 0,-649.35 0,-649.35 0,-643.35 6,-637.35 12,-637.35 12,-637.35 69.3,-637.35 69.3,-637.35 75.3,-637.35 81.3,-643.35 81.3,-649.35 81.3,-649.35 81.3,-662.63 81.3,-662.63 81.3,-668.63 75.3,-674.63 69.3,-674.63"/>
<text xml:space="preserve" text-anchor="start" x="14.4" y="-656.54" font-family="Helvetica,sans-Serif" font-weight="bold" font-size="11.00" fill="#1e2a38">Miravalles</text>
<text xml:space="preserve" text-anchor="start" x="17.4" y="-647.44" font-family="Helvetica,sans-Serif" font-size="9.00" fill="#5b6b7c">geothermal</text>
</g>
<!-- 0&#45;&#45;1 -->
<g id="edge1" class="edge">
<title>0&#45;&#45;1</title>
<path fill="none" stroke="#d6455a" stroke-width="2" stroke-dasharray="5,2" d="M120.76,-571.13C103.17,-589.77 76.52,-617.99 58.86,-636.7"/>
</g>
<!-- 2 -->
<g id="node3" class="node">
<title>2</title>
<path fill="#edeff2" stroke="#8a93a0" stroke-width="1.6" d="M78.06,-561.86C78.06,-561.86 31.26,-561.86 31.26,-561.86 25.26,-561.86 19.26,-555.86 19.26,-549.86 19.26,-549.86 19.26,-536.58 19.26,-536.58 19.26,-530.58 25.26,-524.58 31.26,-524.58 31.26,-524.58 78.06,-524.58 78.06,-524.58 84.06,-524.58 90.06,-530.58 90.06,-536.58 90.06,-536.58 90.06,-549.86 90.06,-549.86 90.06,-555.86 84.06,-561.86 78.06,-561.86"/>
<text xml:space="preserve" text-anchor="start" x="38.16" y="-543.77" font-family="Helvetica,sans-Serif" font-weight="bold" font-size="11.00" fill="#1e2a38">Cañas</text>
<text xml:space="preserve" text-anchor="start" x="33.66" y="-534.67" font-family="Helvetica,sans-Serif" font-size="9.00" fill="#5b6b7c">substation</text>
</g>
<!-- 0&#45;&#45;2 -->
<g id="edge2" class="edge">
<title>0&#45;&#45;2</title>
<path fill="none" stroke="#d6455a" stroke-width="1.6" stroke-dasharray="5,2" d="M97.69,-547.75C95.36,-547.5 93.02,-547.26 90.7,-547.01"/>
</g>
<!-- 1&#45;&#45;2 -->
<g id="edge3" class="edge">
<title>1&#45;&#45;2</title>
<path fill="none" stroke="#b8c2cc" stroke-width="1.4" d="M43.06,-636.61C45.64,-615.82 49.72,-583.04 52.29,-562.35"/>
</g>
<!-- 3 -->
<g id="node4" class="node">
<title>3</title>
<path fill="#fbebd9" stroke="#3b7a57" stroke-width="1.6" d="M175.98,-395.47C175.98,-395.47 126.18,-395.47 126.18,-395.47 120.18,-395.47 114.18,-389.47 114.18,-383.47 114.18,-383.47 114.18,-370.19 114.18,-370.19 114.18,-364.19 120.18,-358.19 126.18,-358.19 126.18,-358.19 175.98,-358.19 175.98,-358.19 181.98,-358.19 187.98,-364.19 187.98,-370.19 187.98,-370.19 187.98,-383.47 187.98,-383.47 187.98,-389.47 181.98,-395.47 175.98,-395.47"/>
<text xml:space="preserve" text-anchor="start" x="128.58" y="-377.38" font-family="Helvetica,sans-Serif" font-weight="bold" font-size="11.00" fill="#1e2a38">Garabito</text>
<text xml:space="preserve" text-anchor="start" x="135.71" y="-368.28" font-family="Helvetica,sans-Serif" font-size="9.00" fill="#5b6b7c">thermal</text>
</g>
<!-- 2&#45;&#45;3 -->
<g id="edge4" class="edge">
<title>2&#45;&#45;3</title>
<path fill="none" stroke="#d6455a" stroke-width="2.7" stroke-dasharray="5,2" d="M65.91,-523.8C84.49,-491.74 121.37,-428.1 139.91,-396.12"/>
</g>
<!-- 4 -->
<g id="node5" class="node">
<title>4</title>
<path fill="#dce7fa" stroke="#3b7a57" stroke-width="1.6" d="M278.41,-391.34C278.41,-391.34 225.61,-391.34 225.61,-391.34 219.61,-391.34 213.61,-385.34 213.61,-379.34 213.61,-379.34 213.61,-366.06 213.61,-366.06 213.61,-360.06 219.61,-354.06 225.61,-354.06 225.61,-354.06 278.41,-354.06 278.41,-354.06 284.41,-354.06 290.41,-360.06 290.41,-366.06 290.41,-366.06 290.41,-379.34 290.41,-379.34 290.41,-385.34 284.41,-391.34 278.41,-391.34"/>
<text xml:space="preserve" text-anchor="start" x="228.01" y="-373.25" font-family="Helvetica,sans-Serif" font-weight="bold" font-size="11.00" fill="#1e2a38">San José</text>
<text xml:space="preserve" text-anchor="start" x="229.14" y="-364.15" font-family="Helvetica,sans-Serif" font-size="9.00" fill="#5b6b7c">load center</text>
</g>
<!-- 3&#45;&#45;4 -->
<g id="edge5" class="edge">
<title>3&#45;&#45;4</title>
<path fill="none" stroke="#d6455a" stroke-width="3.6" stroke-dasharray="5,2" d="M188.67,-375.29C196.62,-374.97 205.04,-374.62 213.05,-374.29"/>
</g>
<!-- 7 -->
<g id="node8" class="node">
<title>7</title>
<path fill="#edeff2" stroke="#8a93a0" stroke-width="1.6" d="M407.11,-37.28C407.11,-37.28 360.31,-37.28 360.31,-37.28 354.31,-37.28 348.31,-31.28 348.31,-25.28 348.31,-25.28 348.31,-12 348.31,-12 348.31,-6 354.31,0 360.31,0 360.31,0 407.11,0 407.11,0 413.11,0 419.11,-6 419.11,-12 419.11,-12 419.11,-25.28 419.11,-25.28 419.11,-31.28 413.11,-37.28 407.11,-37.28"/>
<text xml:space="preserve" text-anchor="start" x="365.34" y="-19.19" font-family="Helvetica,sans-Serif" font-weight="bold" font-size="11.00" fill="#1e2a38">Palmar</text>
<text xml:space="preserve" text-anchor="start" x="362.71" y="-10.09" font-family="Helvetica,sans-Serif" font-size="9.00" fill="#5b6b7c">substation</text>
</g>
<!-- 3&#45;&#45;7 -->
<g id="edge9" class="edge">
<title>3&#45;&#45;7</title>
<path fill="none" stroke="#d6455a" stroke-width="3" stroke-dasharray="5,2" d="M163.59,-357.57C203.98,-295.38 330.66,-100.32 371.14,-37.99"/>
</g>
<!-- 5 -->
<g id="node6" class="node">
<title>5</title>
<path fill="#dcefe3" stroke="#3b7a57" stroke-width="1.6" d="M353.03,-346.05C353.03,-346.05 295.73,-346.05 295.73,-346.05 289.73,-346.05 283.73,-340.05 283.73,-334.05 283.73,-334.05 283.73,-320.77 283.73,-320.77 283.73,-314.77 289.73,-308.77 295.73,-308.77 295.73,-308.77 353.03,-308.77 353.03,-308.77 359.03,-308.77 365.03,-314.77 365.03,-320.77 365.03,-320.77 365.03,-334.05 365.03,-334.05 365.03,-340.05 359.03,-346.05 353.03,-346.05"/>
<text xml:space="preserve" text-anchor="start" x="309.38" y="-327.96" font-family="Helvetica,sans-Serif" font-weight="bold" font-size="11.00" fill="#1e2a38">Cachí</text>
<text xml:space="preserve" text-anchor="start" x="298.13" y="-318.86" font-family="Helvetica,sans-Serif" font-size="9.00" fill="#5b6b7c">hydroelectric</text>
</g>
<!-- 4&#45;&#45;5 -->
<g id="edge6" class="edge">
<title>4&#45;&#45;5</title>
<path fill="none" stroke="#b8c2cc" stroke-width="2.3" d="M282.7,-353.49C286.25,-351.28 289.86,-349.01 293.41,-346.79"/>
</g>
<!-- 6 -->
<g id="node7" class="node">
<title>6</title>
<path fill="#edeff2" stroke="#8a93a0" stroke-width="1.6" d="M483.95,-411.41C483.95,-411.41 437.15,-411.41 437.15,-411.41 431.15,-411.41 425.15,-405.41 425.15,-399.41 425.15,-399.41 425.15,-386.13 425.15,-386.13 425.15,-380.13 431.15,-374.13 437.15,-374.13 437.15,-374.13 483.95,-374.13 483.95,-374.13 489.95,-374.13 495.95,-380.13 495.95,-386.13 495.95,-386.13 495.95,-399.41 495.95,-399.41 495.95,-405.41 489.95,-411.41 483.95,-411.41"/>
<text xml:space="preserve" text-anchor="start" x="447.8" y="-393.32" font-family="Helvetica,sans-Serif" font-weight="bold" font-size="11.00" fill="#1e2a38">Moín</text>
<text xml:space="preserve" text-anchor="start" x="439.55" y="-384.22" font-family="Helvetica,sans-Serif" font-size="9.00" fill="#5b6b7c">substation</text>
</g>
<!-- 4&#45;&#45;6 -->
<g id="edge8" class="edge">
<title>4&#45;&#45;6</title>
<path fill="none" stroke="#d6455a" stroke-width="2.5" stroke-dasharray="5,2" d="M290.75,-376.43C329.03,-380.11 387.13,-385.7 424.47,-389.29"/>
</g>
<!-- 5&#45;&#45;6 -->
<g id="edge7" class="edge">
<title>5&#45;&#45;6</title>
<path fill="none" stroke="#d6455a" stroke-width="3.2" stroke-dasharray="5,2" d="M364.87,-346.84C383.84,-355.95 406.25,-366.71 424.62,-375.52"/>
</g>
</g>
</svg>
